<svg xmlns="http://www.w3.org/2000/svg" viewBox="0 0 1024 1024"><path d="M184.35 496.768V51.205c0-5.657 4.583-10.24 10.24-10.24h545.915c5.657 0 10.24 4.583 10.24 10.24v428.8c0 11.311 9.169 20.48 20.48 20.48s20.48-9.169 20.48-20.48v-428.8c0-28.278-22.922-51.2-51.2-51.2H194.59c-28.278 0-51.2 22.922-51.2 51.2v445.563c0 11.311 9.169 20.48 20.48 20.48s20.48-9.169 20.48-20.48zM839.113 574.193v398.52c0 5.649-4.588 10.237-10.252 10.24l-549.367.082c-5.654 0-10.237-4.583-10.237-10.24V602.967c0-11.311-9.169-20.48-20.48-20.48s-20.48 9.169-20.48 20.48v369.828c0 28.278 22.922 51.2 51.2 51.2l549.379-.082c28.28-.017 51.197-22.934 51.197-51.2v-398.52c0-11.311-9.169-20.48-20.48-20.48s-20.48 9.169-20.48 20.48z"/><path d="M769.933 501.371c-.277-.3-.938-.582-1.747-.582H185.97c-.801 0-1.166-.07-1.364-.178l69.29 75.126c.277.3.938.582 1.747.582h581.704c.82 0 1.184.072 1.375.175l-68.788-75.124zm67.413 115.908H255.642c-12.107 0-23.716-4.957-31.848-13.763l-69.664-75.531c-24.785-26.876-4.285-68.156 31.839-68.156h582.216c12.107 0 23.716 4.957 31.898 13.817l69.112 75.477c24.787 26.878 4.272 68.156-31.849 68.156zM658.475 377.856c5.657 0 10.24-4.583 10.24-10.24V132.465c0-5.657-4.583-10.24-10.24-10.24H275.397c-5.651 0-10.24 4.588-10.24 10.24v235.151c0 5.652 4.589 10.24 10.24 10.24h383.078zm0 40.96H275.397c-28.271 0-51.2-22.924-51.2-51.2V132.465c0-28.276 22.929-51.2 51.2-51.2h383.078c28.278 0 51.2 22.922 51.2 51.2v235.151c0 28.278-22.922 51.2-51.2 51.2z"/><path d="M673.452 558.009h61.44c11.311 0 20.48-9.169 20.48-20.48s-9.169-20.48-20.48-20.48h-61.44c-11.311 0-20.48 9.169-20.48 20.48s9.169 20.48 20.48 20.48zM531.116 558.009h61.44c11.311 0 20.48-9.169 20.48-20.48s-9.169-20.48-20.48-20.48h-61.44c-11.311 0-20.48 9.169-20.48 20.48s9.169 20.48 20.48 20.48z"/></svg>