<svg xmlns="http://www.w3.org/2000/svg" viewBox="0 0 1024 1024"><path d="M787.689 757.76c28.277 0 51.2-22.923 51.2-51.2V122.88c0-28.277-22.923-51.2-51.2-51.2H235.517c-28.277 0-51.2 22.923-51.2 51.2v583.68c0 28.277 22.923 51.2 51.2 51.2h552.172zm0 40.96H235.517c-50.899 0-92.16-41.261-92.16-92.16V122.88c0-50.899 41.261-92.16 92.16-92.16h552.172c50.899 0 92.16 41.261 92.16 92.16v583.68c0 50.899-41.261 92.16-92.16 92.16z"/><path d="M337.998 659.456c0 31.109-25.211 56.32-56.32 56.32s-56.32-25.211-56.32-56.32 25.211-56.32 56.32-56.32 56.32 25.211 56.32 56.32zM797.774 659.456c0 31.109-25.211 56.32-56.32 56.32s-56.32-25.211-56.32-56.32 25.211-56.32 56.32-56.32 56.32 25.211 56.32 56.32zM409.422 679.936h204.8c11.311 0 20.48-9.169 20.48-20.48s-9.169-20.48-20.48-20.48h-204.8c-11.311 0-20.48 9.169-20.48 20.48s9.169 20.48 20.48 20.48zM163.84 561.493h695.532c11.311 0 20.48-9.169 20.48-20.48s-9.169-20.48-20.48-20.48H163.84c-11.311 0-20.48 9.169-20.48 20.48s9.169 20.48 20.48 20.48zM163.84 215.381h695.532c11.311 0 20.48-9.169 20.48-20.48s-9.169-20.48-20.48-20.48H163.84c-11.311 0-20.48 9.169-20.48 20.48s9.169 20.48 20.48 20.48zM340.148 839.264v62.648c0 24.112-19.291 43.581-42.998 43.581h-6.164c-23.707 0-42.998-19.469-42.998-43.581v-62.915c0-11.311-9.169-20.48-20.48-20.48s-20.48 9.169-20.48 20.48v62.915c0 46.65 37.544 84.541 83.958 84.541h6.164c46.413 0 83.958-37.892 83.958-84.541v-62.648c0-11.311-9.169-20.48-20.48-20.48s-20.48 9.169-20.48 20.48zM778.42 839.264v62.648c0 24.112-19.291 43.581-42.998 43.581h-6.164c-23.707 0-42.998-19.469-42.998-43.581v-62.915c0-11.311-9.169-20.48-20.48-20.48s-20.48 9.169-20.48 20.48v62.915c0 46.65 37.544 84.541 83.958 84.541h6.164c46.413 0 83.958-37.892 83.958-84.541v-62.648c0-11.311-9.169-20.48-20.48-20.48s-20.48 9.169-20.48 20.48z"/></svg>