<svg xmlns="http://www.w3.org/2000/svg" viewBox="0 0 1024 1024"><path d="M379.141 472.367H215.035c-16.962 0-30.72-13.758-30.72-30.72V71.676c0-16.962 13.758-30.72 30.72-30.72h591.8c16.962 0 30.72 13.758 30.72 30.72v364.851c0 16.962-13.758 30.72-30.72 30.72h-96.768v40.96h96.768c39.583 0 71.68-32.097 71.68-71.68V71.676c0-39.583-32.097-71.68-71.68-71.68h-591.8c-39.583 0-71.68 32.097-71.68 71.68v369.971c0 39.583 32.097 71.68 71.68 71.68h164.106v-40.96z"/><path d="M550.66 165.528c0-23.331-18.909-42.24-42.24-42.24s-42.24 18.909-42.24 42.24c0 23.331 18.909 42.24 42.24 42.24s42.24-18.909 42.24-42.24zm40.96 0c0 45.953-37.247 83.2-83.2 83.2s-83.2-37.247-83.2-83.2 37.247-83.2 83.2-83.2 83.2 37.247 83.2 83.2zM272.9 325.528h474.88c11.311 0 20.48-9.169 20.48-20.48s-9.169-20.48-20.48-20.48H272.9c-11.311 0-20.48 9.169-20.48 20.48s9.169 20.48 20.48 20.48zM272.9 417.688h252.672c11.311 0 20.48-9.169 20.48-20.48s-9.169-20.48-20.48-20.48H272.9c-11.311 0-20.48 9.169-20.48 20.48s9.169 20.48 20.48 20.48zM597.725 513.269c11.311 0 20.48-9.169 20.48-20.48s-9.169-20.48-20.48-20.48H330.942c-11.311 0-20.48 9.169-20.48 20.48v106.26a61.445 61.445 0 0 0 6.638 27.787l61.112 120.504a40.922 40.922 0 0 1 4.431 18.528v237.189c0 11.311 9.169 20.48 20.48 20.48s20.48-9.169 20.48-20.48V765.868a81.856 81.856 0 0 0-8.865-37.063L353.63 608.309a20.48 20.48 0 0 1-2.209-9.261v-85.78h246.303zM638.643 1003.057V783.87a51.175 51.175 0 0 1 16.723-37.846l46.466-42.328a81.887 81.887 0 0 0 26.759-60.565V537.772c0-11.311-9.169-20.48-20.48-20.48s-20.48 9.169-20.48 20.48v105.359a40.934 40.934 0 0 1-13.377 30.28l-46.464 42.327a92.126 92.126 0 0 0-30.107 68.132v219.187c0 11.311 9.169 20.48 20.48 20.48s20.48-9.169 20.48-20.48z"/><path d="M625.769 545.158V426.036c0-16.968 13.754-30.72 30.72-30.72 17.396 0 31.15 13.752 31.15 30.72v139.602c0 11.311 9.169 20.48 20.48 20.48s20.48-9.169 20.48-20.48V426.036c0-39.591-32.094-71.68-71.68-71.68-40.016 0-72.11 32.089-72.11 71.68v119.122c0 11.311 9.169 20.48 20.48 20.48s20.48-9.169 20.48-20.48z"/></svg>