<svg xmlns="http://www.w3.org/2000/svg" viewBox="0 0 1024 1024"><path d="M951.467 554.667h-76.8c-29.867 0-51.2 21.333-51.2 51.2v285.867c0 29.867 21.333 51.2 51.2 51.2h76.8c29.867 0 51.2-21.333 51.2-51.2V605.867c0-25.6-21.333-51.2-51.2-51.2zM960 891.733c0 4.267-4.267 8.533-8.533 8.533h-76.8c-4.267 0-8.533-4.267-8.533-8.533V605.866c0-4.267 4.267-8.533 8.533-8.533h76.8c4.267 0 8.533 4.267 8.533 8.533v285.867zM678.4 503.467h-76.8c-29.867 0-51.2 21.333-51.2 51.2v345.6c0 29.867 21.333 51.2 51.2 51.2h76.8c29.867 0 51.2-21.333 51.2-51.2v-345.6c0-25.6-21.333-51.2-51.2-51.2zm8.533 401.066c0 4.267-4.267 8.533-8.533 8.533h-76.8c-4.267 0-8.533-4.267-8.533-8.533V554.666c0-4.267 4.267-8.533 8.533-8.533h76.8c4.267 0 8.533 4.267 8.533 8.533v349.867zM413.867 443.733h-76.8c-29.867 0-51.2 21.333-51.2 51.2v409.6c0 29.867 21.333 51.2 51.2 51.2h76.8c29.867 0 51.2-21.333 51.2-51.2v-409.6c0-29.867-21.333-51.2-51.2-51.2zm8.533 460.8c0 4.267-4.267 8.533-8.533 8.533h-76.8c-4.267 0-8.533-4.267-8.533-8.533v-409.6c0-4.267 4.267-8.533 8.533-8.533h76.8c4.267 0 8.533 4.267 8.533 8.533v409.6zM149.333 392.533h-76.8c-29.867 0-51.2 21.333-51.2 51.2v460.8c0 29.867 21.333 51.2 51.2 51.2h76.8c29.867 0 51.2-21.333 51.2-51.2v-460.8c0-29.867-21.333-51.2-51.2-51.2zm8.534 512c0 4.267-4.267 8.533-8.533 8.533h-76.8c-4.267 0-8.533-4.267-8.533-8.533v-460.8c0-4.267 4.267-8.533 8.533-8.533h76.8c4.267 0 8.533 4.267 8.533 8.533v460.8zM29.867 145.067C307.2 307.2 610.134 401.067 930.134 422.4l-34.133 38.4c-8.533 8.533-8.533 21.333 0 29.867 4.267 4.267 8.533 4.267 12.8 4.267s12.8-4.267 17.067-8.533l68.267-72.533s0-4.267 4.267-4.267v-4.267-4.267-4.267-4.267-4.267-4.267s0-4.267-4.267-4.267l-68.267-72.533c-8.533-8.533-21.333-8.533-29.867 0s-8.533 21.333 0 29.867l29.867 34.133c-307.2-12.8-601.6-106.667-870.4-260.267-12.8-8.533-25.6-4.267-29.867 4.267-8.533 12.8-4.267 25.6 4.267 29.867z"/></svg>