<svg xmlns="http://www.w3.org/2000/svg" viewBox="0 0 1024 1024"><path d="M668.974 71.79c140.357 4.04 251.95 122.694 251.95 264.993v18.504c0 199.532-64.682 389.323-182.359 545.313l-8.714 11.51c-8.709 10.407-17.908 19.001-28.024 26.385-38.316 27.993-92.685 4.083-98.562-43.397l-26.137-252.53c-3.931-31.743-30.909-55.581-62.906-55.581h-5.13c-31.994 0-58.967 23.835-62.86 55.172l-26.169 252.767c-5.85 47.17-60.505 71.191-98.7 42.843a155.596 155.596 0 0 1-26.457-24.924l-10.18-12.274C167.079 744.606 102.4 554.814 102.4 355.287v-18.504c0-142.301 111.585-260.952 251.94-264.993 57.166-1.643 111.9 15.244 157.322 47.36 45.42-32.113 100.154-49.003 157.311-47.36zm-167.907 55.261l12.654 16.103v-20.48h-4.116v20.48l12.654-16.103a261.153 261.153 0 0 0-10.596-7.902 261.59 261.59 0 0 0-10.596 7.901zm204.821 748.852c112.339-148.915 174.076-330.065 174.076-520.617v-18.504c0-120.426-94.266-220.656-212.168-224.049-52.01-1.495-101.514 15.165-141.422 46.525a20.483 20.483 0 0 1-12.654 4.377h-4.116a20.477 20.477 0 0 1-12.654-4.377c-39.91-31.363-89.413-48.019-141.432-46.524-117.9 3.394-212.158 103.621-212.158 224.049v18.504c0 190.549 61.735 371.699 173.461 519.854l9.512 11.435a114.509 114.509 0 0 0 19.44 18.302c12.824 9.518 31.626 1.254 33.594-14.581l26.169-252.768c6.485-52.263 50.889-91.502 103.555-91.502h5.13c52.67 0 97.083 39.243 103.602 91.915l26.137 252.53c2.007 16.2 20.725 24.431 33.71 14.944a114.54 114.54 0 0 0 19.85-18.462l8.367-11.05z"/></svg>