<svg xmlns="http://www.w3.org/2000/svg" viewBox="0 0 1024 1024"><path d="M766.61 309.861H573.176c-11.311 0-20.48 9.169-20.48 20.48s9.169 20.48 20.48 20.48H766.61c11.311 0 20.48-9.169 20.48-20.48s-9.169-20.48-20.48-20.48zM315.195 950.204h539.136c11.311 0 20.48-9.169 20.48-20.48s-9.169-20.48-20.48-20.48H315.195c-11.311 0-20.48 9.169-20.48 20.48s9.169 20.48 20.48 20.48z"/><path d="M397.709 520.191V143.359c0-16.962 13.758-30.72 30.72-30.72h42.353c45.245 0 81.92 36.675 81.92 81.92v135.782c0 11.311 9.169 20.48 20.48 20.48s20.48-9.169 20.48-20.48V194.559c0-67.866-55.014-122.88-122.88-122.88h-42.353c-39.583 0-71.68 32.097-71.68 71.68v376.832c0 11.311 9.169 20.48 20.48 20.48s20.48-9.169 20.48-20.48z"/><path d="M326.169 350.341c16.962 0 30.72 13.758 30.72 30.72v497.336c0 16.968-13.754 30.72-30.72 30.72-11.311 0-20.48 9.169-20.48 20.48s9.169 20.48 20.48 20.48c39.586 0 71.68-32.089 71.68-71.68V381.061c0-39.583-32.097-71.68-71.68-71.68-11.311 0-20.48 9.169-20.48 20.48s9.169 20.48 20.48 20.48z"/><path d="M326.169 909.222H143.365c-16.968 0-30.72-13.754-30.72-30.72V381.166c0-16.972 13.748-30.72 30.72-30.72h182.804c11.311 0 20.48-9.169 20.48-20.48s-9.169-20.48-20.48-20.48H143.365c-39.594 0-71.68 32.086-71.68 71.68v497.336c0 39.586 32.089 71.68 71.68 71.68h182.804c11.311 0 20.48-9.169 20.48-20.48s-9.169-20.48-20.48-20.48zM687.946 350.905h168.786c29.781 0 53.924 24.14 53.924 53.914v1.034c0 29.782-24.142 53.924-53.924 53.924H687.946c-11.311 0-20.48 9.169-20.48 20.48s9.169 20.48 20.48 20.48h168.786c52.404 0 94.884-42.48 94.884-94.884v-1.034c0-52.396-42.482-94.874-94.884-94.874H687.946c-11.311 0-20.48 9.169-20.48 20.48s9.169 20.48 20.48 20.48z"/><path d="M687.946 500.732h168.786c29.781 0 53.924 24.14 53.924 53.914v1.034c0 29.782-24.142 53.924-53.924 53.924H687.946c-11.311 0-20.48 9.169-20.48 20.48s9.169 20.48 20.48 20.48h168.786c52.404 0 94.884-42.48 94.884-94.884v-1.034c0-52.396-42.482-94.874-94.884-94.874H687.946c-11.311 0-20.48 9.169-20.48 20.48s9.169 20.48 20.48 20.48z"/><path d="M687.946 650.559h168.786c29.781 0 53.924 24.14 53.924 53.914v1.034c0 29.782-24.142 53.924-53.924 53.924H687.946c-11.311 0-20.48 9.169-20.48 20.48s9.169 20.48 20.48 20.48h168.786c52.404 0 94.884-42.48 94.884-94.884v-1.034c0-52.396-42.482-94.874-94.884-94.874H687.946c-11.311 0-20.48 9.169-20.48 20.48s9.169 20.48 20.48 20.48z"/><path d="M687.946 800.387h168.786c29.781 0 53.924 24.14 53.924 53.914v1.034c0 29.782-24.142 53.924-53.924 53.924-11.311 0-20.48 9.169-20.48 20.48s9.169 20.48 20.48 20.48c52.404 0 94.884-42.48 94.884-94.884v-1.034c0-52.396-42.482-94.874-94.884-94.874H687.946c-11.311 0-20.48 9.169-20.48 20.48s9.169 20.48 20.48 20.48zM397.849 929.599V306.178c0-11.311-9.169-20.48-20.48-20.48s-20.48 9.169-20.48 20.48v623.421c0 11.311 9.169 20.48 20.48 20.48s20.48-9.169 20.48-20.48z"/></svg>