<svg xmlns="http://www.w3.org/2000/svg" viewBox="0 0 1024 1024"><path d="M981.038 268.568l-.159-.078.159.078zm-938.267.09l.083-.04-.083.04zM538.149 52.691c-16.503-7.871-35.789-7.871-52.116-.089L77.222 251.867h869.554L538.149 52.691zM896 298.667h-92.444V896H896V298.667zm42.667 0V896h49.612c19.725 0 35.721 14.33 35.721 32v64c0 17.67-15.996 32-35.721 32H35.721C15.996 1024 0 1009.67 0 992v-64c0-17.67 15.996-32 35.721-32h49.612V298.667H38.821c-41.08 0-53.924-54.344-17.084-72.031l443.187-216.02c29.722-14.169 64.44-14.169 94.336.091l442.887 215.876c36.97 17.629 24.167 72.084-16.961 72.084h-46.52zm-405.334 0V896h92.444V298.667h-92.444zm-42.666 0h-92.444V896h92.444V298.667zm177.777 0V896h92.444V298.667h-92.444zm-405.333 0V896h92.444V298.667h-92.444zm-42.667 0H128V896h92.444V298.667zM512 219.022c33.932 0 61.44-26.744 61.44-59.733S545.932 99.556 512 99.556s-61.44 26.744-61.44 59.733 27.508 59.733 61.44 59.733zm0-39.822c-11.311 0-20.48-8.915-20.48-19.911s9.169-19.911 20.48-19.911 20.48 8.915 20.48 19.911S523.311 179.2 512 179.2zm464.372 802.133v-42.667H47.628v42.667h928.744z"/></svg>