<svg xmlns="http://www.w3.org/2000/svg" viewBox="0 0 1024 1024"><path d="M667.953 25.56l171.377 982.313c1.944 11.142 12.553 18.599 23.695 16.655s18.599-12.553 16.655-23.695L708.303 18.52C706.359 7.378 695.75-.079 684.608 1.865s-18.599 12.553-16.655 23.695zM315.044 18.521l-171.377 982.313c-1.944 11.142 5.513 21.751 16.655 23.695s21.751-5.513 23.695-16.655L355.394 25.561c1.944-11.142-5.513-21.751-16.655-23.695s-21.751 5.513-23.695 16.655zM488.538 20.481v81.92c0 11.311 9.169 20.48 20.48 20.48s20.48-9.169 20.48-20.48v-81.92c0-11.311-9.169-20.48-20.48-20.48s-20.48 9.169-20.48 20.48zM488.538 218.568v133.12c0 11.311 9.169 20.48 20.48 20.48s20.48-9.169 20.48-20.48v-133.12c0-11.311-9.169-20.48-20.48-20.48s-20.48 9.169-20.48 20.48zM488.538 467.854v184.32c0 11.311 9.169 20.48 20.48 20.48s20.48-9.169 20.48-20.48v-184.32c0-11.311-9.169-20.48-20.48-20.48s-20.48 9.169-20.48 20.48zM488.538 768.342v235.52c0 11.311 9.169 20.48 20.48 20.48s20.48-9.169 20.48-20.48v-235.52c0-11.311-9.169-20.48-20.48-20.48s-20.48 9.169-20.48 20.48z"/></svg>