<?xml version="1.0" standalone="no"?>
<!DOCTYPE svg PUBLIC "-//W3C//DTD SVG 1.1//EN" "http://www.w3.org/Graphics/SVG/1.1/DTD/svg11.dtd" >
<svg xmlns="http://www.w3.org/2000/svg">
<metadata>Generated by IcoMoon</metadata>
<defs>
<font id="mt-web-icons" horiz-adv-x="1024">
<font-face units-per-em="1024" ascent="960" descent="-64" />
<missing-glyph horiz-adv-x="1024" />
<glyph unicode="&#x20;" horiz-adv-x="512" d="" />
<glyph unicode="&#xe900;" glyph-name="settings" d="M953.34 500.236h-132.625c-13.219 0-24.771 8.566-28.833 21.056-4.119 12.706-9.139 25.122-15.044 37.243-5.623 11.608-3.402 25.507 5.785 34.725l93.467 93.457c3.603 3.606 3.603 9.45 0.007 13.049l-91.012 91.002c-3.593 3.596-9.428 3.596-13.028-0.006l-93.137-93.137c-9.235-9.235-23.241-11.437-34.893-5.702-12.155 5.994-24.682 11.116-37.487 15.314-12.449 4.069-20.97 15.623-20.97 28.808v131.961c0 5.091-4.129 9.22-9.22 9.22h-128.698c-5.091 0-9.22-4.129-9.22-9.22v-134.936c0-12.884-8.139-24.247-20.169-28.539-12.090-4.337-23.758-9.406-34.928-15.18-11.721-6.057-26.027-3.952-35.417 5.438l-95.973 95.973c-3.603 3.603-9.433 3.603-13.035-0.001l-91.004-90.994c-3.605-3.605-3.605-9.439 0-13.044l99.221-99.221c9.067-9.037 11.39-22.701 6.062-34.233-4.765-10.326-8.931-20.991-12.483-31.962-4.053-12.493-15.632-21.071-28.861-21.071h-141.183c-5.091 0-9.22-4.129-9.22-9.22v-128.688c0-5.091 4.129-9.22 9.22-9.22h144.803c12.851 0 24.184-8.096 28.533-20.086 3.587-9.879 7.687-19.502 12.302-28.863 5.703-11.647 3.502-25.653-5.737-34.892l-102.663-102.663c-3.597-3.594-3.597-9.424 0.005-13.027l91.012-91.002c3.594-3.597 9.424-3.597 13.028 0.006l103.008 103.008c9.215 9.185 23.175 11.413 34.781 5.745 9.287-4.518 18.803-8.531 28.572-12.040 12.010-4.345 20.127-15.679 20.127-28.55v-145.417c0-5.091 4.129-9.22 9.22-9.22h128.698c5.091 0 9.22 4.129 9.22 9.22v142.433c0 13.197 8.531 24.752 20.982 28.832 10.602 3.476 20.979 7.555 31.081 12.211 11.534 5.328 25.182 3.010 34.226-6.034l100.205-100.195c3.593-3.596 9.428-3.596 13.028 0.007l90.998 90.988c3.602 3.605 3.602 9.444 0.006 13.040l-96.949 96.949c-9.367 9.398-11.469 23.689-5.42 35.393 5.628 10.907 10.588 22.283 14.869 34.1 4.355 11.977 15.674 20.056 28.509 20.056h136.235c5.091 0 9.22 4.129 9.22 9.22v128.688c0 5.091-4.129 9.22-9.22 9.22zM953.34 541.196c27.713 0 50.18-22.467 50.18-50.18v-128.688c0-27.713-22.467-50.18-50.18-50.18h-128.838c-3.314-8.558-6.957-16.926-10.926-25.092l91.482-91.482c19.589-19.589 19.589-51.354-0.001-70.961l-90.998-90.988c-19.592-19.609-51.381-19.609-70.966-0.007l-95.004 94.994c-7.083-3.076-14.273-5.906-21.562-8.483v-134.802c0-27.713-22.467-50.18-50.18-50.18h-128.698c-27.713 0-50.18 22.467-50.18 50.18v138.018c-6.374 2.454-12.668 5.106-18.881 7.956l-97.683-97.683c-19.601-19.601-51.375-19.601-70.959-0.001l-91.006 90.996c-19.601 19.601-19.601 51.375 0 70.96l97.335 97.335c-2.927 6.304-5.658 12.721-8.191 19.24h-137.425c-27.713 0-50.18 22.467-50.18 50.18v128.688c0 27.713 22.467 50.18 50.18 50.18h133.523c2.667 7.635 5.604 15.144 8.805 22.517l-94.047 94.047c-19.6 19.6-19.6 51.37 0.001 70.971l90.998 90.988c19.591 19.608 51.365 19.608 70.966 0.006l90.524-90.524c8.459 4.117 17.145 7.885 26.041 11.3v127.505c0 27.713 22.467 50.18 50.18 50.18h128.698c27.713 0 50.18-22.467 50.18-50.18v-124.312c9.767-3.459 19.369-7.385 28.775-11.758l87.784 87.784c19.592 19.609 51.381 19.609 70.965 0.007l91.012-91.002c19.582-19.599 19.582-51.359-0.007-70.965l-88.152-88.143c4.276-9.307 8.11-18.788 11.487-28.421h124.947zM655.36 431.787c0-82.007-66.473-148.48-148.48-148.48s-148.48 66.473-148.48 148.48c0 82.007 66.473 148.48 148.48 148.48s148.48-66.473 148.48-148.48zM614.4 431.787c0 59.386-48.134 107.52-107.52 107.52s-107.52-48.134-107.52-107.52c0-59.386 48.134-107.52 107.52-107.52s107.52 48.134 107.52 107.52z" />
<glyph unicode="&#xe901;" glyph-name="refresh" d="M643.759 61.783c77.46 26.672 141.075 75.755 185.988 137.307 4.629 4.516 6.755 11 5.693 17.36-0.026 0.197-0.056 0.393-0.088 0.589-0.003 0.016-0.007 0.032-0.010 0.049-1.113 6.151-5.086 11.404-10.709 14.159l-56.53 40.088c-4.53 4.488-10.962 6.51-17.265 5.427-0.155-0.020-0.31-0.042-0.464-0.066-0.024-0.006-0.048-0.012-0.072-0.019-6.107-1.106-11.346-5.005-14.149-10.532-31.44-42.857-75.609-76.947-129.836-95.619-140.801-48.482-293.643 25.746-341.963 166.079s26.422 292.924 167.222 341.406c131.991 45.448 273.616-14.979 330.786-138.050l-89.429-0.558c-8.995 1.174-17.65-3.91-20.99-12.331-3.373-8.259-0.777-17.735 6.332-23.117l153.694-155.17c3.812-3.848 9.047-5.96 14.475-5.84s10.574 2.461 14.228 6.475l148.171 162.749c6.482 5.349 8.872 14.193 5.961 22.048-0.050 0.132-0.102 0.264-0.156 0.394-0.152 0.394-0.316 0.782-0.492 1.165-0.225 0.488-0.471 0.966-0.736 1.434-0.013 0.030-0.027 0.060-0.040 0.090-4.015 7.084-11.99 10.968-20.072 9.775l-89.491-0.945c-0.363 1.054-0.698 2.026-1.173 3.406-68.86 199.985-287.86 306.346-488.523 237.252s-307.755-287.737-238.895-487.722c68.86-199.985 287.86-306.345 488.523-237.251l0.011-0.033z" />
<glyph unicode="&#xe902;" glyph-name="plus" d="M576.477 490.196l349.649-0.621c35.346-0.041 63.967-28.728 63.926-64.074s-28.728-63.967-64.074-63.926l-349.429 0.621 0.194-349.647c0.013-35.346-28.63-64.010-63.977-64.023s-64.010 28.63-64.023 63.977l-0.195 349.921-349.622 0.621c-35.346 0.041-63.967 28.728-63.926 64.074s28.728 63.967 64.074 63.926l349.402-0.621-0.194 349.361c-0.013 35.346 28.63 64.010 63.977 64.023s64.010-28.63 64.023-63.977l0.194-349.635z" />
<glyph unicode="&#xe903;" glyph-name="error" d="M520.741 774.866c-0.848 1.39-2.016 2.558-3.406 3.406-4.827 2.946-11.129 1.421-14.075-3.406l-423.002-693.073c-0.981-1.607-1.499-3.452-1.499-5.335 0-5.655 4.585-10.24 10.24-10.24h846.004c1.882 0 3.728 0.519 5.335 1.499 4.827 2.946 6.352 9.248 3.406 14.075l-423.002 693.073zM564.444 801.54l423.002-693.073c17.678-28.964 8.528-66.774-20.436-84.452-9.64-5.883-20.715-8.996-32.008-8.996h-846.004c-33.932 0-61.44 27.508-61.44 61.44 0 11.293 3.113 22.368 8.996 32.008l423.002 693.073c17.678 28.964 55.488 38.113 84.452 20.436 8.34-5.090 15.346-12.096 20.436-20.436zM512 160.427c22.622 0 40.96 18.338 40.96 40.96s-18.338 40.96-40.96 40.96c-22.622 0-40.96-18.338-40.96-40.96s18.338-40.96 40.96-40.96zM512 600.747c-22.622 0-40.96-18.338-40.96-40.96v-225.28c0-22.622 18.338-40.96 40.96-40.96s40.96 18.338 40.96 40.96v225.28c0 22.622-18.338 40.96-40.96 40.96z" />
<glyph unicode="&#xe904;" glyph-name="all-accounts" d="M235.52 795.307h757.76c16.966 0 30.72-13.754 30.72-30.72s-13.754-30.72-30.72-30.72h-757.76c-16.966 0-30.72 13.754-30.72 30.72s13.754 30.72 30.72 30.72zM235.52 570.027h757.76c16.966 0 30.72-13.754 30.72-30.72s-13.754-30.72-30.72-30.72h-757.76c-16.966 0-30.72 13.754-30.72 30.72s13.754 30.72 30.72 30.72zM235.52 334.507h757.76c16.966 0 30.72-13.754 30.72-30.72s-13.754-30.72-30.72-30.72h-757.76c-16.966 0-30.72 13.754-30.72 30.72s13.754 30.72 30.72 30.72zM235.52 109.227h757.76c16.966 0 30.72-13.754 30.72-30.72s-13.754-30.72-30.72-30.72h-757.76c-16.966 0-30.72 13.754-30.72 30.72s13.754 30.72 30.72 30.72zM61.44 703.147c-33.932 0-61.44 27.508-61.44 61.44s27.508 61.44 61.44 61.44c33.932 0 61.44-27.508 61.44-61.44s-27.508-61.44-61.44-61.44zM61.44 477.867c-33.932 0-61.44 27.508-61.44 61.44s27.508 61.44 61.44 61.44c33.932 0 61.44-27.508 61.44-61.44s-27.508-61.44-61.44-61.44zM61.44 242.347c-33.932 0-61.44 27.508-61.44 61.44s27.508 61.44 61.44 61.44c33.932 0 61.44-27.508 61.44-61.44s-27.508-61.44-61.44-61.44zM61.44 17.067c-33.932 0-61.44 27.508-61.44 61.44s27.508 61.44 61.44 61.44c33.932 0 61.44-27.508 61.44-61.44s-27.508-61.44-61.44-61.44z" />
<glyph unicode="&#xe905;" glyph-name="search" d="M602.829 226.298l230.358-233.067c22.423-22.687 58.944-22.853 81.572-0.373s22.795 59.096 0.372 81.783l-222.148 224.76c53.94 61.34 86.688 142.107 86.688 230.556 0 191.674-153.786 347.268-343.755 347.268s-343.755-155.595-343.755-347.268c0-191.674 153.786-347.268 343.755-347.268 60.591 0 117.501 15.829 166.914 43.608zM435.915 298.35c-126.020 0-228.394 103.577-228.394 231.608s102.374 231.608 228.394 231.608c126.020 0 228.394-103.577 228.394-231.608s-102.374-231.608-228.394-231.608z" />
<glyph unicode="&#xe906;" glyph-name="status-error" d="M512-85.333c-282.77 0-512 229.23-512 512s229.23 512 512 512c282.77 0 512-229.23 512-512s-229.23-512-512-512zM450.56 227.223c2.197-23.452 10.023-40.59 23.478-51.414s27.596-15.935 42.424-15.334c14.828 0.601 28.283 6.765 40.365 18.491s17.574 28.413 16.476 50.061c-0.549 14.432-3.707 26.459-9.473 36.080s-13.043 16.837-21.83 21.648c-8.787 4.811-18.123 7.066-28.008 6.765s-19.359-2.856-28.42-7.667c-9.062-4.811-16.75-12.177-23.066-22.099s-10.297-22.099-11.945-36.531zM451.538 698.144l-0.978-5.295v-271.967c0-17.651 6.030-31.183 18.090-40.597s25.423-14.415 40.091-15.003c14.667-0.588 28.357 3.677 41.069 12.797s19.394 22.799 20.045 41.039c1.304 25.888 2.282 51.188 2.933 75.899s0.815 49.717 0.489 75.017c-0.326 25.3-0.978 51.482-1.956 78.547s-2.119 23.382-3.422 53.977c-6.519 14.709-15.156 25.447-25.912 32.213s-21.838 9.855-33.246 9.267c-11.408-0.588-22.327-4.854-32.757-12.797s-18.579-18.975-24.446-33.096z" />
<glyph unicode="&#xe907;" glyph-name="status-updated" d="M429.811 361.567l-80.485 86.309c-21.425 22.976-57.42 24.233-80.396 2.807s-24.233-57.42-2.807-80.396l81.839-87.762-0.158-0.152 43.493-45.038c19.643-20.341 52.056-20.907 72.397-1.264l35.686 34.462 8.195 7.642-0.133 0.143 251.802 243.163c22.607 21.832 23.236 57.857 1.405 80.464s-57.857 23.236-80.464 1.405l-250.373-241.783zM512-85.333c-282.77 0-512 229.23-512 512s229.23 512 512 512c282.77 0 512-229.23 512-512s-229.23-512-512-512z" />
<glyph unicode="&#xe908;" glyph-name="status-refresh" d="M512-85.333c-282.77 0-512 229.23-512 512s229.23 512 512 512c282.77 0 512-229.23 512-512s-229.23-512-512-512zM607.731 134.614c62.403 20.276 114.032 58.693 150.859 107.357 3.77 3.552 5.563 8.714 4.801 13.823-0.018 0.158-0.039 0.315-0.062 0.473-0.003 0.013-0.005 0.026-0.008 0.039-0.805 4.941-3.914 9.204-8.378 11.488l-44.709 32.893c-3.565 3.657-8.688 5.366-13.75 4.587-0.124-0.014-0.249-0.029-0.373-0.046-0.019-0.005-0.039-0.009-0.058-0.014-4.906-0.8-9.156-3.85-11.478-8.236-25.776-33.881-61.624-60.563-105.31-74.758-113.432-36.856-234.791 24.722-271.525 137.777s25.253 234.206 138.685 271.062c106.335 34.55 218.904-15.82 262.966-115.175l-71.623 0.803c-7.187 1.066-14.189-2.885-16.982-9.581-2.817-6.566-0.87-14.191 4.748-18.601l120.91-126.41c2.999-3.135 7.161-4.899 11.51-4.879s8.502 1.823 11.485 4.986l120.931 128.259c5.265 4.193 7.303 11.242 5.082 17.573-0.039 0.106-0.078 0.212-0.119 0.318-0.116 0.317-0.242 0.631-0.378 0.94-0.174 0.394-0.364 0.78-0.569 1.159-0.010 0.024-0.021 0.049-0.031 0.073-3.116 5.729-9.448 8.951-15.937 8.108l-71.678 0.494c-0.276 0.849-0.53 1.632-0.892 2.744-52.348 161.112-226.238 249.347-387.896 196.821s-250.474-226.119-198.126-387.231c52.348-161.112 226.238-249.347 387.896-196.821l0.008-0.027z" />
<glyph unicode="&#xe909;" glyph-name="external-link" d="M960 234.667c-35.346 0-64-28.654-64-64v-64c0-35.346-28.654-64-64-64h-640c-35.346 0-64 28.654-64 64v640c0 35.346 28.654 64 64 64h64c35.346 0 64 28.654 64 64s-28.654 64-64 64h-64c-106.039 0-192-85.961-192-192v-640c0-106.039 85.961-192 192-192h640c106.039 0 192 85.961 192 192v64c0 35.346-28.654 64-64 64zM1023.876 887.147c0 1.92 0 3.84-1.6 5.44-0.528 2.165-1.169 4.302-1.92 6.4-0.946 2.191-2.015 4.328-3.2 6.4 0 0 0 3.2-2.56 4.8-4.658 6.962-10.638 12.942-17.6 17.6l-5.12 2.88-6.080 3.2-6.72 1.92h-5.44c-4.467 1.462-9.081 2.428-13.76 2.88h-384c-35.346 0-64-28.654-64-64s28.654-64 64-64h229.44l-370.56-370.88c-25.007-25.007-25.007-65.553 0-90.56s65.553-25.007 90.56 0l370.56 370.88v-229.44c0-35.346 28.654-64 64-64s64 28.654 64 64v384c0.407 4.15 0.407 8.33 0 12.48z" />
<glyph unicode="&#xe90a;" glyph-name="invisible" d="M844.877 841.219l-277.692-277.689c-16.708 7.997-35.426 12.474-55.185 12.474-70.694 0-128-57.309-128-128 0-19.763 4.478-38.477 12.474-55.185l-270.69-270.69 60.34-60.339 158.277 158.276c51.139-17.225 107.789-28.062 167.599-28.062 115.823 0 219.797 40.64 294.839 89.6 37.559 24.499 69.001 51.81 91.575 78.532 20.809 24.627 40.252 55.979 40.252 87.868 0 31.885-19.443 63.241-40.252 87.868-22.575 26.722-54.016 54.031-91.575 78.533-13.393 8.74-27.712 17.214-42.859 25.24l141.235 141.233-60.339 60.34zM700.322 575.988c21.666-9.997 41.749-21.215 59.895-33.052 31.932-20.832 56.725-42.857 73.015-62.134 8.145-9.643 13.589-17.92 16.819-24.371 2.483-4.958 3.089-7.684 3.238-8.427-0.149-0.742-0.755-3.469-3.238-8.427-3.23-6.451-8.674-14.729-16.819-24.371-16.29-19.277-41.084-41.301-73.015-62.135-63.936-41.711-151.966-75.733-248.218-75.733-34.155 0-67.277 4.284-98.651 11.678l43.466 43.465c16.708-8 35.426-12.476 55.185-12.476 70.694 0 128 57.306 128 128 0 19.759-4.48 38.477-12.476 55.185l72.798 72.799zM263.783 353.071c1.53-0.998 3.074-1.993 4.631-2.978l-61.579-61.581c-33.009 22.669-60.776 47.386-81.251 71.625-20.809 24.627-40.251 55.979-40.251 87.868 0 31.885 19.443 63.241 40.251 87.868 22.576 26.722 54.016 54.031 91.574 78.533 75.044 48.957 179.017 89.598 294.841 89.598 34.641 0 68.22-3.635 100.284-10.041l-76.006-76.009c-8.026 0.472-16.124 0.716-24.277 0.716-96.253 0-184.28-34.025-248.217-75.735-31.932-20.832-56.727-42.857-73.015-62.134-8.148-9.643-13.589-17.92-16.821-24.371-2.484-4.958-3.091-7.684-3.236-8.427 0.145-0.742 0.752-3.469 3.236-8.427 3.232-6.451 8.674-14.729 16.821-24.371 16.287-19.277 41.083-41.301 73.015-62.135z" />
<glyph unicode="&#xe90b;" glyph-name="clear" d="M896 448c0 212.077-171.921 384-384 384-212.077 0-384-171.923-384-384 0-212.079 171.923-384 384-384 212.079 0 384 171.921 384 384zM579.883 561.137c12.497 12.497 32.759 12.497 45.257 0 12.493-12.497 12.493-32.757 0-45.254l-67.883-67.883 67.878-67.883c12.497-12.497 12.497-32.759 0-45.257-12.493-12.493-32.755-12.493-45.252 0l-67.883 67.883-67.883-67.883c-12.497-12.493-32.757-12.493-45.254 0-12.497 12.497-12.497 32.759 0 45.257l67.881 67.883-67.881 67.883c-12.497 12.497-12.497 32.758 0 45.254s32.757 12.497 45.254 0l67.883-67.881 67.883 67.881z" />
<glyph unicode="&#xe90c;" glyph-name="visible" d="M170.711 448c0.145-0.742 0.752-3.469 3.236-8.427 3.232-6.451 8.674-14.729 16.821-24.371 16.287-19.277 41.083-41.301 73.015-62.135 63.936-41.707 151.963-75.733 248.217-75.733 96.252 0 184.282 34.027 248.218 75.733 31.932 20.834 56.725 42.859 73.015 62.135 8.145 9.643 13.589 17.92 16.819 24.371 2.483 4.958 3.089 7.684 3.238 8.427-0.149 0.742-0.755 3.469-3.238 8.427-3.23 6.451-8.674 14.729-16.819 24.371-16.29 19.277-41.084 41.301-73.015 62.134-63.936 41.71-151.966 75.735-248.218 75.735-96.253 0-184.28-34.025-248.217-75.735-31.932-20.832-56.727-42.857-73.015-62.134-8.148-9.643-13.589-17.92-16.821-24.371-2.484-4.958-3.091-7.684-3.236-8.427zM217.159 614.402c75.044 48.957 179.017 89.598 294.841 89.598s219.797-40.642 294.839-89.598c37.559-24.502 69.001-51.811 91.575-78.533 20.809-24.628 40.252-55.984 40.252-87.869s-19.443-63.241-40.252-87.868c-22.575-26.722-54.016-54.033-91.575-78.532-75.042-48.96-179.017-89.6-294.839-89.6s-219.797 40.64-294.841 89.6c-37.559 24.499-68.998 51.81-91.574 78.532-20.809 24.627-40.251 55.983-40.251 87.868s19.443 63.241 40.251 87.869c22.576 26.722 54.016 54.031 91.574 78.533zM640 448c0-70.692-57.308-128-128-128s-128 57.308-128 128c0 70.692 57.308 128 128 128s128-57.308 128-128z" />
<glyph unicode="&#xe92a;" glyph-name="advertising_expense" d="M808.96-23.040c16.962 0 30.72 13.758 30.72 30.72v880.64c0 16.962-13.758 30.72-30.72 30.72h-593.92c-16.962 0-30.72-13.758-30.72-30.72v-880.64c0-16.962 13.758-30.72 30.72-30.72h593.92zM808.96-64h-593.92c-39.583 0-71.68 32.097-71.68 71.68v880.64c0 39.583 32.097 71.68 71.68 71.68h593.92c39.583 0 71.68-32.097 71.68-71.68v-880.64c0-39.583-32.097-71.68-71.68-71.68zM351.348 680.34c0.439-6.727-2.461-13.24-7.754-17.414l-42.094-33.199 51.958-13.212c6.533-1.661 11.83-6.431 14.165-12.755l18.569-50.294 28.624 45.329c3.599 5.699 9.77 9.262 16.505 9.529l53.567 2.124-34.263 41.224c-4.308 5.184-5.79 12.155-3.963 18.643l14.535 51.605-49.805-19.852c-6.262-2.496-13.351-1.751-18.956 1.993l-44.58 29.77 3.492-53.491zM304.28 772.576c-1.106 16.939 17.693 27.793 31.81 18.366l70.139-46.838 78.349 31.229c15.768 6.285 31.898-8.238 27.296-24.577l-22.866-81.183 53.903-64.854c10.849-13.054 2.022-32.882-14.939-33.554l-84.27-3.342-45.032-71.312c-9.063-14.352-30.649-12.082-36.529 3.841l-29.212 79.12-81.745 20.786c-16.452 4.183-20.964 25.416-7.636 35.929l66.225 52.232-5.494 84.159zM643.492 500.823c-2.983-6.045-8.75-10.235-15.422-11.204l-34.232-4.972 24.767-24.148c4.826-4.705 7.027-11.483 5.888-18.126l-5.847-34.092 30.62 16.095c5.965 3.136 13.092 3.136 19.057 0l30.62-16.095-5.847 34.092c-1.139 6.643 1.063 13.421 5.888 18.126l24.767 24.148-34.232 4.972c-6.671 0.969-12.439 5.159-15.422 11.204l-15.304 31.012-15.304-31.012zM640.43 587.177c7.512 15.223 29.219 15.223 36.731 0l28.904-58.573 64.638-9.388c16.798-2.44 23.507-23.082 11.353-34.931l-46.769-45.6 11.042-64.377c2.869-16.729-14.689-29.488-29.714-21.59l-57.82 30.391-57.82-30.391c-15.025-7.897-32.583 4.861-29.714 21.59l11.042 64.377-46.769 45.6c-12.153 11.85-5.444 32.491 11.353 34.931l64.638 9.388 28.904 58.573zM291.84 184.32h440.32c11.311 0 20.48 9.169 20.48 20.48s-9.169 20.48-20.48 20.48h-440.32c-11.311 0-20.48-9.169-20.48-20.48s9.169-20.48 20.48-20.48zM291.84 102.4h440.32c11.311 0 20.48 9.169 20.48 20.48s-9.169 20.48-20.48 20.48h-440.32c-11.311 0-20.48-9.169-20.48-20.48s9.169-20.48 20.48-20.48z" />
<glyph unicode="&#xe92b;" glyph-name="air_fare" d="M495.078 743.831c10.972 0 28.239-7.86 35.452-16.137l148.619-170.675 30.89 26.898-148.623 170.68c-14.995 17.209-43.523 30.194-66.338 30.194h-73.728c-32.358 0-49.57-28.677-34.327-57.222l87.458-163.866 36.135 19.286-85.844 160.843h70.305zM481.227 368.32l-32.901 24.397-160.901-216.986c-20.086-27.094-4.85-57.357 28.872-57.357h102.4c22.342 0 51.147 11.969 66.911 27.8l218.962 219.893-29.025 28.902-218.962-219.894c-8.077-8.112-26.438-15.741-37.886-15.741h-92.438l154.969 208.985zM254.855 550.502h603.136c67.865 0 122.88-55.015 122.88-122.88 0-11.309-9.171-20.48-20.48-20.48h-755.712v-40.96h755.712c33.931 0 61.44 27.509 61.44 61.44 0 90.486-73.354 163.84-163.84 163.84h-603.136v-40.96zM231.815 407.040h-21.207c-35.069 0-66.25 22.322-77.556 55.519l-91.524 268.859c-2.259 6.639 2.683 13.542 9.694 13.542h38.523c3.754 0 10.456-3.989 12.25-7.294l77.135-142.177 36.003 19.533-77.138 142.182c-8.961 16.506-29.477 28.716-48.25 28.716h-38.523c-35.077 0-59.768-34.488-48.47-67.698l91.526-268.865c16.959-49.795 63.728-83.277 116.33-83.277h21.207v40.96zM256.292 591.506c-18.981 0-35.919 11.167-43.573 28.177l-37.353-16.807c14.21-31.581 45.681-52.33 80.925-52.33v40.96z" />
<glyph unicode="&#xe92c;" glyph-name="air_travel" d="M495.078 743.831c10.972 0 28.239-7.86 35.452-16.137l148.619-170.675 30.89 26.898-148.623 170.68c-14.995 17.209-43.523 30.194-66.338 30.194h-73.728c-32.358 0-49.57-28.677-34.327-57.222l87.458-163.866 36.135 19.286-85.844 160.843h70.305zM481.227 368.32l-32.901 24.397-160.901-216.986c-20.086-27.094-4.85-57.357 28.872-57.357h102.4c22.342 0 51.147 11.969 66.911 27.8l218.962 219.893-29.025 28.902-218.962-219.894c-8.077-8.112-26.438-15.741-37.886-15.741h-92.438l154.969 208.985zM254.855 550.502h603.136c67.865 0 122.88-55.015 122.88-122.88 0-11.309-9.171-20.48-20.48-20.48h-755.712v-40.96h755.712c33.931 0 61.44 27.509 61.44 61.44 0 90.486-73.354 163.84-163.84 163.84h-603.136v-40.96zM231.815 407.040h-21.207c-35.069 0-66.25 22.322-77.556 55.519l-91.524 268.859c-2.259 6.639 2.683 13.542 9.694 13.542h38.523c3.754 0 10.456-3.989 12.25-7.294l77.135-142.177 36.003 19.533-77.138 142.182c-8.961 16.506-29.477 28.716-48.25 28.716h-38.523c-35.077 0-59.768-34.488-48.47-67.698l91.526-268.865c16.959-49.795 63.728-83.277 116.33-83.277h21.207v40.96zM256.292 591.506c-18.981 0-35.919 11.167-43.573 28.177l-37.353-16.807c14.21-31.581 45.681-52.33 80.925-52.33v40.96z" />
<glyph unicode="&#xe92d;" glyph-name="allowance" d="M374.804 557.293c24.535-47.852-23.101-95.488-70.953-70.953-7.731 3.963-14.162 10.394-18.125 18.115-24.535 47.852 23.101 95.488 70.953 70.963 7.731-3.963 14.162-10.394 18.125-18.125zM288.945 804.934l110.163-86.090c8.912-6.965 21.783-5.386 28.748 3.526s5.386 21.783-3.526 28.748l-112.154 87.574c-33.16 22.152-77.793-0.44-79.585-40.276l-0.008-1.647 4.915-138.363c0.402-11.304 9.891-20.142 21.194-19.74s20.142 9.891 19.74 21.194l-4.878 137.325c0.754 7.4 8.992 11.556 15.391 7.749zM812.907 144.001c12.948-37.615-7.195-78.884-44.815-91.834l-28.158-9.686c-37.626-12.947-78.884 7.188-91.832 44.815l-13.882 40.345c-37.516-10.552-76.835-16.008-116.953-16.008-43.704 0-86.451 6.504-126.955 19.021l-14.919-43.359c-12.948-37.627-54.205-57.762-91.83-44.815l-28.164 9.688c-37.612 12.948-57.748 54.211-44.812 91.832l26.057 75.715c-27.147 25.977-49.332 55.387-65.593 87.246h-37.478c-34.085 0-61.891 27.806-61.891 61.891v115.384c0 34.085 27.806 61.891 61.891 61.891h26.289c52.237 130.554 194.957 219.924 357.403 219.924 208.281 0 378.286-145.737 378.286-327.209 0-86.127-38.651-166.733-105.963-227.076l23.317-67.764zM179.551 347.92c0.935 0.129 1.621 0.214 2.446 0.284 8.643 0.739 16.813-4.047 20.396-11.947 15.971-35.216 40.334-67.544 71.56-95.227 6.192-5.489 8.472-14.165 5.779-21.989l-30.411-88.366c-5.581-16.229 3.185-34.192 19.408-39.777l28.162-9.688c16.235-5.587 34.186 3.174 39.773 19.41l21.535 62.587c3.727 10.832 15.615 16.501 26.378 12.579 41.777-15.224 86.613-23.195 132.692-23.195 42.673 0 84.287 6.803 123.384 19.865 10.66 3.561 22.199-2.134 25.855-12.761l20.326-59.074c5.587-16.237 23.538-24.997 39.775-19.41l28.156 9.686c16.231 5.587 24.998 23.55 19.413 39.774l-27.832 80.886c-2.775 8.064-0.262 17.003 6.307 22.44 64.888 53.707 101.942 126.869 101.942 204.844 0 157.33-150.386 286.249-337.326 286.249-151.284 0-282.298-85.317-323.805-206.1-2.842-8.271-10.623-13.824-19.368-13.824h-40.52c-11.463 0-20.931-9.468-20.931-20.931v-115.384c0-11.463 9.468-20.931 20.931-20.931h45.976zM457.918 630.858c22.847 6.671 46.68 10.095 70.989 10.095 22.104 0 43.804-2.826 64.718-8.352 10.936-2.889 22.143 3.633 25.032 14.569s-3.633 22.143-14.569 25.032c-24.324 6.427-49.54 9.711-75.181 9.711-28.203 0-55.9-3.98-82.468-11.737-10.857-3.17-17.089-14.542-13.919-25.399s14.542-17.089 25.399-13.919zM909.979 696.315c0-42.238-34.242-76.483-76.483-76.483-11.311 0-20.48-9.169-20.48-20.48s9.169-20.48 20.48-20.48c64.863 0 117.443 52.584 117.443 117.443 0 11.311-9.169 20.48-20.48 20.48s-20.48-9.169-20.48-20.48z" />
<glyph unicode="&#xe92e;" glyph-name="alphabet" d="M829.44 48.64c45.245 0 81.92 36.675 81.92 81.92v634.88c0 45.245-36.675 81.92-81.92 81.92h-634.88c-45.245 0-81.92-36.675-81.92-81.92v-634.88c0-45.245 36.675-81.92 81.92-81.92h634.88zM829.44 7.68h-634.88c-67.866 0-122.88 55.014-122.88 122.88v634.88c0 67.866 55.014 122.88 122.88 122.88h634.88c67.866 0 122.88-55.014 122.88-122.88v-634.88c0-67.866-55.014-122.88-122.88-122.88zM322.684 162.086l205.466 569.713c3.837 10.64-1.677 22.376-12.317 26.213s-22.376-1.677-26.213-12.317l-205.466-569.713c-3.837-10.64 1.677-22.376 12.317-26.213s22.376 1.677 26.213 12.317zM739.848 175.982l-205.466 569.713c-3.837 10.64-15.573 16.155-26.213 12.317s-16.155-15.573-12.317-26.213l205.466-569.713c3.837-10.64 15.573-16.155 26.213-12.317s16.155 15.573 12.317 26.213zM375.165 347.488h274.36c11.311 0 20.48 9.169 20.48 20.48s-9.169 20.48-20.48 20.48h-274.36c-11.311 0-20.48-9.169-20.48-20.48s9.169-20.48 20.48-20.48z" />
<glyph unicode="&#xe92f;" glyph-name="amusement_park" d="M880.408 550.517c0 203.535-164.993 368.527-368.527 368.527-203.526 0-368.517-164.994-368.517-368.527s164.991-368.527 368.517-368.527c203.535 0 368.527 164.993 368.527 368.527zM921.368 550.517c0-226.156-183.331-409.487-409.487-409.487-226.148 0-409.477 183.333-409.477 409.487s183.329 409.487 409.477 409.487c226.156 0 409.487-183.331 409.487-409.487zM763.706 550.517c0 139.074-112.748 251.822-251.822 251.822s-251.822-112.748-251.822-251.822c0-139.074 112.748-251.822 251.822-251.822s251.822 112.748 251.822 251.822zM804.666 550.517c0-161.695-131.087-292.782-292.782-292.782s-292.782 131.087-292.782 292.782c0 161.695 131.087 292.782 292.782 292.782s292.782-131.087 292.782-292.782zM497.408 545.254l345.303-598.088c5.655-9.795 18.181-13.152 27.976-7.496s13.152 18.181 7.496 27.976l-345.303 598.088c-5.655 9.795-18.181 13.152-27.976 7.496s-13.152-18.181-7.496-27.976zM494.556 565.734l-345.303-598.088c-5.655-9.795-2.299-22.321 7.496-27.976s22.321-2.299 27.976 7.496l345.303 598.088c5.655 9.795 2.299 22.321-7.496 27.976s-22.321 2.299-27.976-7.496z" />
<glyph unicode="&#xe930;" glyph-name="anchor" d="M555.646 831.652c0 25.668-20.652 46.428-46.080 46.428s-46.080-20.76-46.080-46.428c0-25.668 20.652-46.428 46.080-46.428s46.080 20.76 46.080 46.428zM596.606 831.652c0-48.242-38.943-87.388-87.040-87.388s-87.040 39.146-87.040 87.388c0 48.242 38.943 87.388 87.040 87.388s87.040-39.146 87.040-87.388zM487.412 764.743v-767.252c0-11.311 9.169-20.48 20.48-20.48s20.48 9.169 20.48 20.48v767.252c0 11.311-9.169 20.48-20.48 20.48s-20.48-9.169-20.48-20.48zM391.806 600.152h235.52c11.311 0 20.48 9.169 20.48 20.48s-9.169 20.48-20.48 20.48h-235.52c-11.311 0-20.48-9.169-20.48-20.48s9.169-20.48 20.48-20.48zM841.281 176.747c-76.863-103.561-198.843-166-331.448-166-132.917 0-255.148 62.727-331.954 166.681-6.721 9.097-19.545 11.023-28.642 4.302s-11.023-19.545-4.302-28.642c84.468-114.324 218.879-183.301 364.898-183.301 145.677 0 279.812 68.661 364.339 182.549 6.741 9.083 4.843 21.91-4.24 28.651s-21.91 4.843-28.651-4.24zM153.6 95.659v92.805c0 11.311-9.169 20.48-20.48 20.48s-20.48-9.169-20.48-20.48v-92.805c0-11.311 9.169-20.48 20.48-20.48s20.48 9.169 20.48 20.48zM225.925 208.945h-92.805c-11.311 0-20.48-9.169-20.48-20.48s9.169-20.48 20.48-20.48h92.805c11.311 0 20.48 9.169 20.48 20.48s-9.169 20.48-20.48 20.48zM908.225 95.659v92.805c0 11.311-9.169 20.48-20.48 20.48s-20.48-9.169-20.48-20.48v-92.805c0-11.311 9.169-20.48 20.48-20.48s20.48 9.169 20.48 20.48zM794.939 167.985h92.805c11.311 0 20.48 9.169 20.48 20.48s-9.169 20.48-20.48 20.48h-92.805c-11.311 0-20.48-9.169-20.48-20.48s9.169-20.48 20.48-20.48z" />
<glyph unicode="&#xe931;" glyph-name="arcade" d="M184.35 463.232v445.563c0 5.657 4.583 10.24 10.24 10.24h545.915c5.657 0 10.24-4.583 10.24-10.24v-428.8c0-11.311 9.169-20.48 20.48-20.48s20.48 9.169 20.48 20.48v428.8c0 28.278-22.922 51.2-51.2 51.2h-545.915c-28.278 0-51.2-22.922-51.2-51.2v-445.563c0-11.311 9.169-20.48 20.48-20.48s20.48 9.169 20.48 20.48zM839.113 385.807v-398.52c0-5.649-4.588-10.237-10.252-10.24l-549.367-0.082c-5.654 0-10.237 4.583-10.237 10.24v369.828c0 11.311-9.169 20.48-20.48 20.48s-20.48-9.169-20.48-20.48v-369.828c0-28.278 22.922-51.2 51.2-51.2l549.379 0.082c28.28 0.017 51.197 22.934 51.197 51.2v398.52c0 11.311-9.169 20.48-20.48 20.48s-20.48-9.169-20.48-20.48zM769.933 458.629c-0.277 0.3-0.938 0.582-1.747 0.582h-582.216c-0.801 0-1.166 0.070-1.364 0.178l69.29-75.126c0.277-0.3 0.938-0.582 1.747-0.582h581.704c0.82 0 1.184-0.072 1.375-0.175l-68.788 75.124zM837.346 342.721h-581.704c-12.107 0-23.716 4.957-31.848 13.763l-69.664 75.531c-24.785 26.876-4.285 68.156 31.839 68.156h582.216c12.107 0 23.716-4.957 31.898-13.817l69.112-75.477c24.787-26.878 4.272-68.156-31.849-68.156zM658.475 582.144c5.657 0 10.24 4.583 10.24 10.24v235.151c0 5.657-4.583 10.24-10.24 10.24h-383.078c-5.651 0-10.24-4.588-10.24-10.24v-235.151c0-5.652 4.589-10.24 10.24-10.24h383.078zM658.475 541.184h-383.078c-28.271 0-51.2 22.924-51.2 51.2v235.151c0 28.276 22.929 51.2 51.2 51.2h383.078c28.278 0 51.2-22.922 51.2-51.2v-235.151c0-28.278-22.922-51.2-51.2-51.2zM673.452 401.991h61.44c11.311 0 20.48 9.169 20.48 20.48s-9.169 20.48-20.48 20.48h-61.44c-11.311 0-20.48-9.169-20.48-20.48s9.169-20.48 20.48-20.48zM531.116 401.991h61.44c11.311 0 20.48 9.169 20.48 20.48s-9.169 20.48-20.48 20.48h-61.44c-11.311 0-20.48-9.169-20.48-20.48s9.169-20.48 20.48-20.48z" />
<glyph unicode="&#xe932;" glyph-name="atm_deposit" d="M342.273 499.2h-127.232c-16.962 0-30.72 13.758-30.72 30.72v358.4c0 16.962 13.758 30.72 30.72 30.72h591.872c16.962 0 30.72-13.758 30.72-30.72v-358.4c0-16.962-13.758-30.72-30.72-30.72h-78.080c-11.311 0-20.48-9.169-20.48-20.48s9.169-20.48 20.48-20.48h78.080c39.583 0 71.68 32.097 71.68 71.68v358.4c0 39.583-32.097 71.68-71.68 71.68h-591.872c-39.583 0-71.68-32.097-71.68-71.68v-358.4c0-39.583 32.097-71.68 71.68-71.68h127.232c11.311 0 20.48 9.169 20.48 20.48s-9.169 20.48-20.48 20.48zM265.216 816.64h71.424c11.311 0 20.48 9.169 20.48 20.48s-9.169 20.48-20.48 20.48h-71.424c-11.311 0-20.48-9.169-20.48-20.48s9.169-20.48 20.48-20.48zM265.216 560.335h69.376c11.311 0 20.48 9.169 20.48 20.48s-9.169 20.48-20.48 20.48h-69.376c-11.311 0-20.48-9.169-20.48-20.48s9.169-20.48 20.48-20.48zM685.185 816.64h71.424c11.311 0 20.48 9.169 20.48 20.48s-9.169 20.48-20.48 20.48h-71.424c-11.311 0-20.48-9.169-20.48-20.48s9.169-20.48 20.48-20.48zM685.185 560.64h71.424c11.311 0 20.48 9.169 20.48 20.48s-9.169 20.48-20.48 20.48h-71.424c-11.311 0-20.48-9.169-20.48-20.48s9.169-20.48 20.48-20.48zM659.787-42.496v128.307c0 13.529 6.683 26.184 17.858 33.817l36.384 24.853c22.342 15.268 35.706 40.582 35.706 67.64v79.596c0 11.311-9.169 20.48-20.48 20.48s-20.48-9.169-20.48-20.48v-79.596c0-13.528-6.682-26.187-17.853-33.82l-36.379-24.85c-22.349-15.263-35.716-40.578-35.716-67.64v-128.307c0-11.311 9.169-20.48 20.48-20.48s20.48 9.169 20.48 20.48zM331.605 305.98v-91.423c0-28.832 15.164-55.54 39.919-70.328l43.023-25.685c12.375-7.392 19.96-20.756 19.96-35.172v-125.87c0-11.311 9.169-20.48 20.48-20.48s20.48 9.169 20.48 20.48v125.87c0 28.834-15.165 55.551-39.919 70.338l-43.023 25.685c-12.378 7.394-19.96 20.749-19.96 35.162v91.423c0 11.311-9.169 20.48-20.48 20.48s-20.48-9.169-20.48-20.48zM749.637 250.94v213.678c0 36.757-29.803 66.56-66.56 66.56h-2.222c-36.757 0-66.56-29.803-66.56-66.56v-126.638c0-11.311 9.169-20.48 20.48-20.48s20.48 9.169 20.48 20.48v126.638c0 14.136 11.464 25.6 25.6 25.6h2.222c14.136 0 25.6-11.464 25.6-25.6v-213.678c0-11.311 9.169-20.48 20.48-20.48s20.48 9.169 20.48 20.48zM655.258 384.102v126.638c0 36.757-29.803 66.56-66.56 66.56h-2.222c-36.757 0-66.56-29.803-66.56-66.56v-165.55c0-11.311 9.169-20.48 20.48-20.48s20.48 9.169 20.48 20.48v165.55c0 14.136 11.464 25.6 25.6 25.6h2.222c14.136 0 25.6-11.464 25.6-25.6v-126.638c0-11.311 9.169-20.48 20.48-20.48s20.48 9.169 20.48 20.48zM561.445 343.185v213.678c0 36.757-29.803 66.56-66.56 66.56h-2.222c-36.757 0-66.56-29.803-66.56-66.56v-163.502c0-11.311 9.169-20.48 20.48-20.48s20.48 9.169 20.48 20.48v163.502c0 14.136 11.464 25.6 25.6 25.6h2.222c14.136 0 25.6-11.464 25.6-25.6v-213.678c0-11.311 9.169-20.48 20.48-20.48s20.48 9.169 20.48 20.48zM467.013 347.238v163.502c0 36.757-29.803 66.56-66.56 66.56h-2.222c-36.757 0-66.56-29.803-66.56-66.56v-213.678c0-11.311 9.169-20.48 20.48-20.48s20.48 9.169 20.48 20.48v213.678c0 14.136 11.464 25.6 25.6 25.6h2.222c14.136 0 25.6-11.464 25.6-25.6v-163.502c0-11.311 9.169-20.48 20.48-20.48s20.48 9.169 20.48 20.48zM572.416 712.704c0 33.93-27.51 61.44-61.44 61.44s-61.44-27.51-61.44-61.44c0-33.93 27.51-61.44 61.44-61.44s61.44 27.51 61.44 61.44zM613.376 712.704c0-56.551-45.849-102.4-102.4-102.4s-102.4 45.849-102.4 102.4c0 56.551 45.849 102.4 102.4 102.4s102.4-45.849 102.4-102.4z" />
<glyph unicode="&#xe933;" glyph-name="atm_fee" d="M485.107 667.478c5.657 0 10.24 4.583 10.24 10.24v139.090c0 5.657-4.583 10.24-10.24 10.24h-193.71c-5.657 0-10.24-4.583-10.24-10.24v-139.090c0-5.657 4.583-10.24 10.24-10.24h193.71zM485.107 626.518h-193.71c-28.278 0-51.2 22.922-51.2 51.2v139.090c0 28.278 22.922 51.2 51.2 51.2h193.71c28.278 0 51.2-22.922 51.2-51.2v-139.090c0-28.278-22.922-51.2-51.2-51.2zM587.337 826.539h87.89c11.311 0 20.48 9.169 20.48 20.48s-9.169 20.48-20.48 20.48h-87.89c-11.311 0-20.48-9.169-20.48-20.48s9.169-20.48 20.48-20.48zM184.35 463.232v445.563c0 5.657 4.583 10.24 10.24 10.24h545.915c5.657 0 10.24-4.583 10.24-10.24v-428.8c0-11.311 9.169-20.48 20.48-20.48s20.48 9.169 20.48 20.48v428.8c0 28.278-22.922 51.2-51.2 51.2h-545.915c-28.278 0-51.2-22.922-51.2-51.2v-445.563c0-11.311 9.169-20.48 20.48-20.48s20.48 9.169 20.48 20.48zM839.113 385.807v-398.52c0-5.649-4.588-10.237-10.252-10.24l-549.367-0.082c-5.654 0-10.237 4.583-10.237 10.24v369.828c0 11.311-9.169 20.48-20.48 20.48s-20.48-9.169-20.48-20.48v-369.828c0-28.278 22.922-51.2 51.2-51.2l549.379 0.082c28.28 0.017 51.197 22.934 51.197 51.2v398.52c0 11.311-9.169 20.48-20.48 20.48s-20.48-9.169-20.48-20.48zM184.241 459.784l0.365-0.395c-0.197 0.107-0.23 0.249-0.365 0.395zM839.033 383.165l-0.311 0.34c0.18-0.098 0.205-0.223 0.311-0.34zM769.933 458.629c-0.277 0.3-0.938 0.582-1.747 0.582h-582.216c-0.801 0-1.166 0.070-1.364 0.178l69.29-75.126c0.277-0.3 0.938-0.582 1.747-0.582h581.704c0.82 0 1.184-0.072 1.375-0.175l-68.788 75.124zM837.346 342.721h-581.704c-12.107 0-23.716 4.957-31.848 13.763l-69.664 75.531c-24.785 26.876-4.285 68.156 31.839 68.156h582.216c12.107 0 23.716-4.957 31.898-13.817l69.112-75.477c24.787-26.878 4.272-68.156-31.849-68.156z" />
<glyph unicode="&#xe934;" glyph-name="attorney_fee" d="M655.36 773.12c0 80.593-65.327 145.92-145.92 145.92s-145.92-65.327-145.92-145.92c0-80.593 65.327-145.92 145.92-145.92s145.92 65.327 145.92 145.92zM696.32 773.12c0-103.215-83.665-186.88-186.88-186.88s-186.88 83.665-186.88 186.88c0 103.215 83.665 186.88 186.88 186.88s186.88-83.665 186.88-186.88zM691.2-20.992c16.849 0 30.72 13.871 30.72 30.72v391.168c0 101.329-82.991 184.32-184.32 184.32h-56.32c-101.329 0-184.32-82.991-184.32-184.32v-391.168c0-16.849 13.871-30.72 30.72-30.72h363.52zM691.2-61.952h-363.52c-39.471 0-71.68 32.209-71.68 71.68v391.168c0 123.951 101.329 225.28 225.28 225.28h56.32c123.951 0 225.28-101.329 225.28-225.28v-391.168c0-39.471-32.209-71.68-71.68-71.68zM516.685 470.701l38.66 38.66c4.001 4.005 4.001 10.493 0.006 14.491l-38.66 38.66c-4.005 4.001-10.493 4.001-14.491 0.006l-38.666-38.666c-4.003-4.003-4.003-10.482 0-14.485l38.666-38.666c4.003-4.003 10.482-4.003 14.485 0zM434.57 480.404c-19.999 19.999-19.999 52.412 0 72.411l38.672 38.672c19.998 19.981 52.401 19.981 72.405-0.006l38.672-38.672c19.981-19.998 19.981-52.401-0.006-72.405l-38.666-38.666c-19.999-19.999-52.412-19.999-72.411 0l-38.666 38.666zM438.688 200.909c-0.027-0.072-0.052-0.182-0.069-0.347l0.042 0.416c0.287-0.139 0.14 0.231 0.027-0.069zM580.749 201.747c-0.676-0.446-0.68-0.456-0.654-0.538 0.029-0.093-29.351 285.18-29.351 285.18-1.161 11.251 7.019 21.313 18.27 22.473s21.313-7.019 22.473-18.27l29.489-285.859c1.297-12.444-4.566-26.703-14.225-34.634l-78.849-64.822c-12.055-9.923-30.26-9.684-42.079 0.544l-74.294 64.422c-9.279 8.049-14.893 22.192-13.665 34.406l29.368 293.478c1.126 11.255 11.163 19.465 22.417 18.339s19.465-11.163 18.339-22.417l-29.328-293.072c-0.070 0.034 68.668-59.589 68.668-59.589l73.42 60.358z" />
<glyph unicode="&#xe935;" glyph-name="auto_insurance" d="M282.9 749.846v111.667c0 31.769 25.759 57.528 57.528 57.528h347.197c31.769 0 57.528-25.759 57.528-57.528v-111.667c0-11.311 9.169-20.48 20.48-20.48s20.48 9.169 20.48 20.48v111.667c0 54.39-44.098 98.488-98.488 98.488h-347.197c-54.39 0-98.488-44.098-98.488-98.488v-111.667c0-11.311 9.169-20.48 20.48-20.48s20.48 9.169 20.48 20.48zM826.467 547.177c22.625 0 40.96 18.335 40.96 40.96v98.775c0 22.625-18.335 40.96-40.96 40.96h-626.514c-22.625 0-40.96-18.335-40.96-40.96v-98.775c0-22.625 18.335-40.96 40.96-40.96h626.514zM826.467 506.217h-626.514c-45.246 0-81.92 36.674-81.92 81.92v98.775c0 45.246 36.674 81.92 81.92 81.92h626.514c45.246 0 81.92-36.674 81.92-81.92v-98.775c0-45.246-36.674-81.92-81.92-81.92zM316.481 463.912v-30.095c0-27.057-21.929-48.988-48.978-48.988h-6.748c-27.058 0-48.988 21.93-48.988 48.988v30.382c0 11.311-9.169 20.48-20.48 20.48s-20.48-9.169-20.48-20.48v-30.382c0-49.68 40.268-89.948 89.948-89.948h6.748c49.672 0 89.938 40.27 89.938 89.948v30.095c0 11.311-9.169 20.48-20.48 20.48s-20.48-9.169-20.48-20.48zM811.576 463.912v-30.095c0-27.057-21.929-48.988-48.978-48.988h-6.748c-27.058 0-48.988 21.93-48.988 48.988v30.382c0 11.311-9.169 20.48-20.48 20.48s-20.48-9.169-20.48-20.48v-30.382c0-49.68 40.268-89.948 89.948-89.948h6.748c49.672 0 89.938 40.27 89.938 89.948v30.095c0 11.311-9.169 20.48-20.48 20.48s-20.48-9.169-20.48-20.48zM352.587 637.528c0-25.446-20.634-46.080-46.080-46.080s-46.080 20.634-46.080 46.080c0 25.446 20.634 46.080 46.080 46.080s46.080-20.634 46.080-46.080zM767.492 637.528c0-25.446-20.634-46.080-46.080-46.080s-46.080 20.634-46.080 46.080c0 25.446 20.634 46.080 46.080 46.080s46.080-20.634 46.080-46.080zM433.714 617.048h158.986c11.311 0 20.48 9.169 20.48 20.48s-9.169 20.48-20.48 20.48h-158.986c-11.311 0-20.48-9.169-20.48-20.48s9.169-20.48 20.48-20.48zM396.905 303.377h-184.367l-85.025 85.025c-29.154 29.154-76.435 29.154-105.589 0-29.216-29.277-29.196-76.506-0.051-105.65l106.957-106.957c14.304-14.304 33.481-21.954 53.336-21.811 0.115-0.006 158.675-0.018 158.675-0.018v-196.71c0-11.311 9.169-20.48 20.48-20.48s20.48 9.169 20.48 20.48v217.19c0 11.311-9.169 20.48-20.48 20.48h-178.565c-9.798-0.093-18.472 3.341-24.963 9.833l-106.957 106.957c-13.168 13.168-13.168 34.502-0.004 47.659 13.269 13.223 34.577 13.205 47.718 0.065l91.023-91.023c3.841-3.841 9.050-5.998 14.482-5.998h191.947c0.288-0.022 19.652-0.092 19.652-0.092 18.672 0 33.812-15.141 33.812-33.812v-271.258c0-11.311 9.169-20.48 20.48-20.48s20.48 9.169 20.48 20.48v271.258c0 41.294-33.479 74.772-74.772 74.772h-16.73c-0.401 0.028-0.947 0.050-2.019 0.092zM607.344 303.285c-41.294 0-74.772-33.479-74.772-74.772v-271.258c0-11.311 9.169-20.48 20.48-20.48s20.48 9.169 20.48 20.48v271.258c0 18.672 15.141 33.812 33.812 33.812h17.869c0.648 0.038 1.147 0.068 1.54 0.092h192.191c5.432 0 10.641 2.158 14.482 5.998l91.023 91.023c13.141 13.141 34.449 13.158 47.611 0.052 13.271-13.275 13.271-34.609 0.103-47.776l-106.957-106.957c-6.492-6.492-15.165-9.926-24.259-9.814-2.542-0.102-2.542-0.102-3.168-0.201 0.326 0.064 0.326 0.064 2.69 0.182h-178.79c-11.311 0-20.48-9.169-20.48-20.48v-217.19c0-11.311 9.169-20.48 20.48-20.48s20.48 9.169 20.48 20.48v196.71h158.31c20.065-0.186 39.339 7.468 53.701 21.829l106.957 106.957c29.144 29.144 29.165 76.373 0.057 105.532-29.262 29.272-76.543 29.272-105.697 0.118l-85.025-85.025h-184.367c-1.206-0.048-1.747-0.069-2.164-0.103l-16.586 0.011z" />
<glyph unicode="&#xe936;" glyph-name="auto" d="M859.136 239.872c28.277 0 51.2 22.923 51.2 51.2v149.156c0 28.277-22.923 51.2-51.2 51.2h-695.296c-28.277 0-51.2-22.923-51.2-51.2v-149.156c0-28.277 22.923-51.2 51.2-51.2h695.296zM859.136 198.912h-695.296c-50.899 0-92.16 41.261-92.16 92.16v149.156c0 50.899 41.261 92.16 92.16 92.16h695.296c50.899 0 92.16-41.261 92.16-92.16v-149.156c0-50.899-41.261-92.16-92.16-92.16zM260.437 157.258v-62.648c0-24.112-19.291-43.581-42.998-43.581h-6.164c-23.707 0-42.998 19.469-42.998 43.581v62.915c0 11.311-9.169 20.48-20.48 20.48s-20.48-9.169-20.48-20.48v-62.915c0-46.65 37.544-84.541 83.958-84.541h6.164c46.413 0 83.958 37.892 83.958 84.541v62.648c0 11.311-9.169 20.48-20.48 20.48s-20.48-9.169-20.48-20.48zM854.357 157.258v-62.648c0-24.112-19.291-43.581-42.998-43.581h-6.164c-23.707 0-42.998 19.469-42.998 43.581v62.915c0 11.311-9.169 20.48-20.48 20.48s-20.48-9.169-20.48-20.48v-62.915c0-46.65 37.544-84.541 83.958-84.541h6.164c46.413 0 83.958 37.892 83.958 84.541v62.648c0 11.311-9.169 20.48-20.48 20.48s-20.48-9.169-20.48-20.48zM308.224 365.652c0-31.109-25.211-56.32-56.32-56.32s-56.32 25.211-56.32 56.32c0 31.109 25.211 56.32 56.32 56.32s56.32-25.211 56.32-56.32zM827.392 365.652c0-31.109-25.211-56.32-56.32-56.32s-56.32 25.211-56.32 56.32c0 31.109 25.211 56.32 56.32 56.32s56.32-25.211 56.32-56.32zM408.32 345.172h204.8c11.311 0 20.48 9.169 20.48 20.48s-9.169 20.48-20.48 20.48h-204.8c-11.311 0-20.48-9.169-20.48-20.48s9.169-20.48 20.48-20.48zM780.288 765.442c0 45.245-36.675 81.92-81.92 81.92h-373.76c-45.245 0-81.92-36.675-81.92-81.92v-233.472h537.6v233.472zM201.728 491.010v274.432c0 67.866 55.014 122.88 122.88 122.88h373.76c67.866 0 122.88-55.014 122.88-122.88v-274.432h-619.52z" />
<glyph unicode="&#xe937;" glyph-name="bank_fee" d="M914.882 653.252l-0.137 0.068c0.045-0.023 0.091-0.046 0.137-0.068zM110.733 653.173c0.024 0.012 0.047 0.023 0.071 0.035l-0.071-0.035zM535.3 842.194c-14.144 6.889-30.674 6.889-44.667 0.078l-350.374-174.403h745.258l-350.217 174.325zM472.543 879.020c25.474 12.401 55.229 12.401 80.851-0.080l379.58-188.941c31.686-15.429 20.713-63.090-14.537-63.090h-811.090c-35.208 0-46.216 47.563-14.642 63.044l379.837 189.067zM911.36 51.237v40.96h-798.72v-40.96h798.72zM921.6 10.277h-819.2c-16.963 0-30.72 13.757-30.72 30.72v61.44c0 16.963 13.757 30.72 30.72 30.72h819.2c16.963 0 30.72-13.757 30.72-30.72v-61.44c0-16.963-13.757-30.72-30.72-30.72zM627.539 419.561c41.324-14.269 69.619-53.31 69.619-97.746 0-57.103-46.28-103.383-103.383-103.383-38.183 0-72.667 20.854-90.712 53.74-5.441 9.916-17.89 13.544-27.807 8.103s-13.544-17.89-8.103-27.807c25.168-45.868 73.336-74.997 126.622-74.997 79.724 0 144.343 64.619 144.343 144.343 0 62.038-39.497 116.535-97.211 136.463-10.691 3.692-22.351-1.983-26.043-12.674s1.983-22.351 12.674-26.043zM532.896 454.405c0 57.092-46.291 103.383-103.383 103.383s-103.383-46.291-103.383-103.383c0-57.092 46.291-103.383 103.383-103.383s103.383 46.291 103.383 103.383zM573.856 454.405c0-79.714-64.629-144.343-144.343-144.343s-144.343 64.629-144.343 144.343c0 79.714 64.629 144.343 144.343 144.343s144.343-64.629 144.343-144.343zM145.861 647.391v-534.712c0-11.311 9.169-20.48 20.48-20.48s20.48 9.169 20.48 20.48v534.712c0 11.311-9.169 20.48-20.48 20.48s-20.48-9.169-20.48-20.48zM838.767 647.391v-534.712c0-11.311 9.169-20.48 20.48-20.48s20.48 9.169 20.48 20.48v534.712c0 11.311-9.169 20.48-20.48 20.48s-20.48-9.169-20.48-20.48z" />
<glyph unicode="&#xe938;" glyph-name="beauty" d="M163.84 852.98h132.116c11.311 0 20.48 9.169 20.48 20.48s-9.169 20.48-20.48 20.48h-132.116c-11.311 0-20.48-9.169-20.48-20.48s9.169-20.48 20.48-20.48zM209.42 939.52v-132.116c0-11.311 9.169-20.48 20.48-20.48s20.48 9.169 20.48 20.48v132.116c0 11.311-9.169 20.48-20.48 20.48s-20.48-9.169-20.48-20.48zM652.172 696.436c0 72.461-58.741 131.205-131.195 131.205-72.463 0-131.205-58.742-131.205-131.205s58.742-131.205 131.205-131.205c72.454 0 131.195 58.744 131.195 131.205zM693.132 696.436c0-95.082-77.079-172.165-172.155-172.165-95.084 0-172.165 77.081-172.165 172.165s77.081 172.165 172.165 172.165c95.076 0 172.155-77.083 172.155-172.165zM680.332-19.724c5.657 0 10.24 4.583 10.24 10.24v369.797c0 90.485-73.355 163.84-163.84 163.84h-11.52c-90.485 0-163.84-73.355-163.84-163.84v-369.797c0-5.657 4.583-10.24 10.24-10.24h318.72zM680.332-60.684h-318.72c-28.278 0-51.2 22.922-51.2 51.2v369.797c0 113.107 91.693 204.8 204.8 204.8h11.52c113.107 0 204.8-91.693 204.8-204.8v-369.797c0-28.278-22.922-51.2-51.2-51.2zM746.242 516.084h110.1c11.311 0 20.48 9.169 20.48 20.48s-9.169 20.48-20.48 20.48h-110.1c-11.311 0-20.48-9.169-20.48-20.48s9.169-20.48 20.48-20.48zM780.812 591.614v-110.1c0-11.311 9.169-20.48 20.48-20.48s20.48 9.169 20.48 20.48v110.1c0 11.311-9.169 20.48-20.48 20.48s-20.48-9.169-20.48-20.48zM197.124 660.468h88.084c11.311 0 20.48 9.169 20.48 20.48s-9.169 20.48-20.48 20.48h-88.084c-11.311 0-20.48-9.169-20.48-20.48s9.169-20.48 20.48-20.48zM220.684 724.988v-88.084c0-11.311 9.169-20.48 20.48-20.48s20.48 9.169 20.48 20.48v88.084c0 11.311-9.169 20.48-20.48 20.48s-20.48-9.169-20.48-20.48z" />
<glyph unicode="&#xe939;" glyph-name="benefits_welfare_expenses" d="M99.012 810.554c-118.359-117.436-118.359-307.899-0.001-425.334l104.879-104.193c8.024-7.972 20.991-7.929 28.963 0.095s7.929 20.991-0.095 28.963l-104.888 104.202c-102.22 101.423-102.22 265.776-0.009 367.19 102.31 101.502 268.242 101.502 370.552-0.001 7.985-7.922 20.864-7.922 28.849 0.001 102.3 101.502 268.241 101.502 370.541 0 102.221-101.414 102.221-265.767 0.001-367.18l-49.043-48.745c-8.022-7.974-8.062-20.941-0.088-28.963s20.941-8.062 28.963-0.088l49.029 48.732c118.356 117.422 118.356 307.886-0.013 425.322-113.574 112.688-294.864 117.162-413.815 13.421-118.959 103.741-300.24 99.267-413.824-13.421zM572.466 696.478l276.214-276.214c15.104-15.104 15.104-39.607-0.003-54.721-15.11-15.11-39.608-15.11-54.712 0l-101.144 101.144c-7.998 7.998-20.965 7.998-28.963 0s-7.998-20.965 0-28.963l101.14-101.14c31.096-31.11 81.534-31.11 112.644 0 31.099 31.113 31.099 81.546 0 112.644l-276.214 276.214c-7.998 7.998-20.965 7.998-28.963 0s-7.998-20.965 0-28.963zM547.175 555.114l217.661-217.661c15.113-15.113 15.113-39.612 0.003-54.715-15.117-15.117-39.608-15.117-54.721-0.003l-101.13 101.13c-7.998 7.998-20.965 7.998-28.963 0s-7.998-20.965 0-28.963l101.13-101.13c31.11-31.11 81.535-31.11 112.644 0 31.11 31.096 31.11 81.534 0 112.644l-217.661 217.661c-7.998 7.998-20.965 7.998-28.963 0s-7.998-20.965 0-28.963zM464.975 469.636l216.023-216.023c15.113-15.113 15.113-39.612 0.003-54.715-15.117-15.117-39.608-15.117-54.721-0.003l-254.607 254.607c-7.998 7.998-20.965 7.998-28.963 0s-7.998-20.965 0-28.963l254.607-254.607c31.11-31.11 81.535-31.11 112.644 0 31.11 31.096 31.11 81.534 0 112.644l-216.023 216.023c-7.998 7.998-20.965 7.998-28.963 0s-7.998-20.965 0-28.963zM569.557 726.511l-162.714-161.69c-4.836-4.836-11.89-6.6-18.381-4.628l-47.119 14.352c-7.402 2.251-9.731 11.566-4.261 17.039l195.641 195.641c7.998 7.998 7.998 20.965 0 28.963s-20.965 7.998-28.963 0l-195.645-195.645c-27.327-27.344-15.68-73.937 21.302-85.183l47.126-14.354c20.97-6.369 43.734-0.676 59.217 14.807l162.668 161.644c8.023 7.973 8.064 20.94 0.091 28.963s-20.94 8.064-28.963 0.091zM344.386 369.66c14.346 14.346 14.346 37.608 0 51.953l-2.765 2.765c-14.346 14.346-37.608 14.346-51.953 0l-59.32-59.32c-14.346-14.346-14.346-37.608 0-51.953l2.765-2.765c14.346-14.346 37.608-14.346 51.953 0l59.32 59.32zM373.35 340.697l-59.32-59.32c-30.342-30.342-79.538-30.342-109.88 0l-2.765 2.765c-30.342 30.342-30.342 79.538 0 109.88l59.32 59.32c30.342 30.342 79.538 30.342 109.88 0l2.765-2.765c30.342-30.342 30.342-79.538 0-109.88zM428.412 337.588l-2.765 2.765c-14.346 14.346-37.608 14.346-51.953 0l-59.32-59.32c-14.346-14.346-14.346-37.608 0-51.953l2.765-2.765c14.346-14.346 37.608-14.346 51.953 0l59.32 59.32c14.346 14.346 14.346 37.608 0 51.953zM398.055 197.351c-30.342-30.342-79.538-30.342-109.88 0l-2.765 2.765c-30.342 30.342-30.342 79.538 0 109.88l59.32 59.32c30.342 30.342 79.538 30.342 109.88 0l2.765-2.765c30.342-30.342 30.342-79.538 0-109.88l-59.32-59.32zM512.436 201.61c14.346 14.346 14.346 37.608 0 51.953l-2.765 2.765c-14.346 14.346-37.608 14.346-51.953 0l-59.32-59.32c-14.346-14.346-14.346-37.608 0-51.953l2.765-2.765c14.346-14.346 37.608-14.346 51.953 0l59.32 59.32zM541.399 172.647l-59.32-59.32c-30.342-30.342-79.538-30.342-109.88 0l-2.765 2.765c-30.342 30.342-30.342 79.538 0 109.88l59.32 59.32c30.342 30.342 79.538 30.342 109.88 0l2.765-2.765c30.342-30.342 30.342-79.538 0-109.88zM596.46 169.538l-2.765 2.765c-14.346 14.346-37.608 14.346-51.953 0l-59.32-59.32c-14.346-14.346-14.346-37.608 0-51.953l2.765-2.765c14.346-14.346 37.608-14.346 51.953 0l59.32 59.32c14.346 14.346 14.346 37.608 0 51.953zM566.103 29.302c-30.342-30.342-79.538-30.342-109.88 0l-2.765 2.765c-30.342 30.342-30.342 79.538 0 109.88l59.32 59.32c30.342 30.342 79.538 30.342 109.88 0l2.765-2.765c30.342-30.342 30.342-79.538 0-109.88l-59.32-59.32z" />
<glyph unicode="&#xe93a;" glyph-name="bin" d="M831.24 679.228c5.657 0 10.24 4.583 10.24 10.24v83.528c0 5.657-4.583 10.24-10.24 10.24h-636.682c-5.657 0-10.24-4.583-10.24-10.24v-83.528c0-5.657 4.583-10.24 10.24-10.24h636.682zM831.24 638.268h-636.682c-28.278 0-51.2 22.922-51.2 51.2v83.528c0 28.278 22.922 51.2 51.2 51.2h636.682c28.278 0 51.2-22.922 51.2-51.2v-83.528c0-28.278-22.922-51.2-51.2-51.2zM806.809 655.312l-58.245-666.45c-0.544-6.246-6.714-11.9-12.99-11.9h-445.348c-6.276 0-12.447 5.654-12.99 11.893l-58.246 666.457c-0.985 11.268-10.917 19.604-22.185 18.619s-19.604-10.917-18.619-22.185l58.245-666.45c2.385-27.401 26.278-49.294 53.795-49.294h445.348c27.517 0 51.41 21.893 53.796 49.301l58.244 666.443c0.985 11.268-7.351 21.201-18.619 22.185s-21.201-7.351-22.185-18.619zM422.020 804.918v103.782c0 5.726 4.601 10.342 10.24 10.342h161.28c5.639 0 10.24-4.617 10.24-10.342v-103.782c0-11.311 9.169-20.48 20.48-20.48s20.48 9.169 20.48 20.48v103.782c0 28.316-22.908 51.302-51.2 51.302h-161.28c-28.292 0-51.2-22.987-51.2-51.302v-103.782c0-11.311 9.169-20.48 20.48-20.48s20.48 9.169 20.48 20.48zM496.004 549.179v-460.964c0-11.311 9.169-20.48 20.48-20.48s20.48 9.169 20.48 20.48v460.964c0 11.311-9.169 20.48-20.48 20.48s-20.48-9.169-20.48-20.48zM303.569 547.412l39.936-460.964c0.976-11.269 10.903-19.612 22.171-18.636s19.612 10.903 18.636 22.171l-39.936 460.964c-0.976 11.269-10.903 19.612-22.171 18.636s-19.612-10.903-18.636-22.171zM681.425 550.947l-39.936-460.964c-0.976-11.269 7.367-21.195 18.636-22.171s21.195 7.367 22.171 18.636l39.936 460.964c0.976 11.269-7.367 21.195-18.636 22.171s-21.195-7.367-22.171-18.636z" />
<glyph unicode="&#xe93b;" glyph-name="bonus" d="M145.408 867.84v-147.456c0-11.311 9.169-20.48 20.48-20.48s20.48 9.169 20.48 20.48v147.456c0 11.311-9.169 20.48-20.48 20.48s-20.48-9.169-20.48-20.48zM92.16 773.632h147.456c11.311 0 20.48 9.169 20.48 20.48s-9.169 20.48-20.48 20.48h-147.456c-11.311 0-20.48-9.169-20.48-20.48s9.169-20.48 20.48-20.48zM836.535 563.589v-147.456c0-11.311 9.169-20.48 20.48-20.48s20.48 9.169 20.48 20.48v147.456c0 11.311-9.169 20.48-20.48 20.48s-20.48-9.169-20.48-20.48zM783.287 469.381h147.456c11.311 0 20.48 9.169 20.48 20.48s-9.169 20.48-20.48 20.48h-147.456c-11.311 0-20.48-9.169-20.48-20.48s9.169-20.48 20.48-20.48zM243.712 690.739v-102.502c0-11.311 9.169-20.48 20.48-20.48s20.48 9.169 20.48 20.48v102.502c0 11.311-9.169 20.48-20.48 20.48s-20.48-9.169-20.48-20.48zM212.941 619.008h102.502c11.311 0 20.48 9.169 20.48 20.48s-9.169 20.48-20.48 20.48h-102.502c-11.311 0-20.48-9.169-20.48-20.48s9.169-20.48 20.48-20.48zM475.653 525.134l-55.951 110.111c-3.461 6.812 1.488 14.879 9.124 14.879h168.202c7.646 0 12.595-8.066 9.133-14.88l-55.95-110.109c-5.124-10.084-1.103-22.412 8.98-27.536s22.412-1.103 27.536 8.98l55.951 110.111c17.306 34.066-7.442 74.394-45.65 74.394h-168.202c-38.201 0-62.944-40.331-45.641-74.392l55.952-110.112c5.124-10.084 17.452-14.104 27.536-8.98s14.104 17.452 8.98 27.536zM678.482 51.695c73.722 0 133.478 59.756 133.478 133.478v39.393c0 145.341-119.005 264.346-264.346 264.346h-69.376c-145.339 0-264.335-119.003-264.335-264.346v-39.393c0-73.722 59.756-133.478 133.478-133.478h331.1zM678.482 10.735h-331.1c-96.344 0-174.438 78.095-174.438 174.438v39.393c0 167.964 137.335 305.306 305.295 305.306h69.376c167.962 0 305.306-137.343 305.306-305.306v-39.393c0-96.344-78.095-174.438-174.438-174.438z" />
<glyph unicode="&#xe93c;" glyph-name="book_cost" d="M598.528 422.4h223.631c11.311 0 20.48 9.169 20.48 20.48s-9.169 20.48-20.48 20.48h-223.631c-11.311 0-20.48-9.169-20.48-20.48s9.169-20.48 20.48-20.48zM199.649 718.336h223.631c11.311 0 20.48 9.169 20.48 20.48s-9.169 20.48-20.48 20.48h-223.631c-11.311 0-20.48-9.169-20.48-20.48s9.169-20.48 20.48-20.48zM593.987 541.184h285.737c16.962 0 30.72-13.758 30.72-30.72v-441.006c0-16.962-13.758-30.72-30.72-30.72h-317.44c-16.968 0-30.72 13.754-30.72 30.72v39.281c0 11.311-9.169 20.48-20.48 20.48s-20.48-9.169-20.48-20.48v-39.281c0-39.586 32.089-71.68 71.68-71.68h317.44c39.583 0 71.68 32.097 71.68 71.68v441.006c0 39.583-32.097 71.68-71.68 71.68h-285.737c-11.311 0-20.48-9.169-20.48-20.48s9.169-20.48 20.48-20.48zM152.747 250.88h359.086c11.311 0 20.48 9.169 20.48 20.48s-9.169 20.48-20.48 20.48h-359.086c-11.311 0-20.48-9.169-20.48-20.48s9.169-20.48 20.48-20.48zM512 210.432h-368.64c-16.962 0-30.72 13.758-30.72 30.72v565.248c0 16.962 13.758 30.72 30.72 30.72h317.44c16.962 0 30.72-13.758 30.72-30.72v-396.8c0-11.311 9.169-20.48 20.48-20.48s20.48 9.169 20.48 20.48v396.8c0 39.583-32.097 71.68-71.68 71.68h-317.44c-39.583 0-71.68-32.097-71.68-71.68v-565.248c0-39.583 32.097-71.68 71.68-71.68h368.64c11.311 0 20.48 9.169 20.48 20.48s-9.169 20.48-20.48 20.48zM491.571 510.72v-106.24c0-16.962-13.758-30.72-30.72-30.72h-229.12v-40.96h229.12c39.583 0 71.68 32.097 71.68 71.68v106.24h-40.96zM112.64 257.229v44.8c0 16.962 13.758 30.72 30.72 30.72h229.12v40.96h-229.12c-39.583 0-71.68-32.097-71.68-71.68v-44.8h40.96z" />
<glyph unicode="&#xe93d;" glyph-name="books_magazines" d="M593.987 551.424h285.737c16.962 0 30.72-13.758 30.72-30.72v-441.006c0-16.962-13.758-30.72-30.72-30.72h-317.44c-16.968 0-30.72 13.754-30.72 30.72v39.281c0 11.311-9.169 20.48-20.48 20.48s-20.48-9.169-20.48-20.48v-39.281c0-39.586 32.089-71.68 71.68-71.68h317.44c39.583 0 71.68 32.097 71.68 71.68v441.006c0 39.583-32.097 71.68-71.68 71.68h-285.737c-11.311 0-20.48-9.169-20.48-20.48s9.169-20.48 20.48-20.48zM152.747 261.12h359.086c11.311 0 20.48 9.169 20.48 20.48s-9.169 20.48-20.48 20.48h-359.086c-11.311 0-20.48-9.169-20.48-20.48s9.169-20.48 20.48-20.48zM512 220.672h-368.64c-16.962 0-30.72 13.758-30.72 30.72v565.248c0 16.962 13.758 30.72 30.72 30.72h317.44c16.962 0 30.72-13.758 30.72-30.72v-396.8c0-11.311 9.169-20.48 20.48-20.48s20.48 9.169 20.48 20.48v396.8c0 39.583-32.097 71.68-71.68 71.68h-317.44c-39.583 0-71.68-32.097-71.68-71.68v-565.248c0-39.583 32.097-71.68 71.68-71.68h368.64c11.311 0 20.48 9.169 20.48 20.48s-9.169 20.48-20.48 20.48zM491.571 520.96v-106.24c0-16.962-13.758-30.72-30.72-30.72h-229.12v-40.96h229.12c39.583 0 71.68 32.097 71.68 71.68v106.24h-40.96zM112.64 267.469v44.8c0 16.962 13.758 30.72 30.72 30.72h229.12v40.96h-229.12c-39.583 0-71.68-32.097-71.68-71.68v-44.8h40.96zM777.161 391.483c0 26.69-21.643 48.333-48.333 48.333s-48.333-21.643-48.333-48.333c0-26.69 21.643-48.333 48.333-48.333s48.333 21.643 48.333 48.333zM818.121 391.483c0-49.311-39.981-89.293-89.293-89.293s-89.293 39.981-89.293 89.293c0 49.311 39.981 89.293 89.293 89.293s89.293-39.981 89.293-89.293zM657.707 140.962v130.099c0 17.197 13.932 31.13 31.13 31.13h75.264c17.197 0 31.13-13.932 31.13-31.13v-130.099c0-11.311 9.169-20.48 20.48-20.48s20.48 9.169 20.48 20.48v130.099c0 39.819-32.271 72.090-72.090 72.090h-75.264c-39.819 0-72.090-32.271-72.090-72.090v-130.099c0-11.311 9.169-20.48 20.48-20.48s20.48 9.169 20.48 20.48zM352.785 709.036c0 26.69-21.643 48.333-48.333 48.333s-48.333-21.643-48.333-48.333c0-26.69 21.643-48.333 48.333-48.333s48.333 21.643 48.333 48.333zM393.745 709.036c0-49.311-39.981-89.293-89.293-89.293s-89.293 39.981-89.293 89.293c0 49.311 39.981 89.293 89.293 89.293s89.293-39.981 89.293-89.293zM233.332 458.514v130.099c0 17.197 13.932 31.13 31.13 31.13h75.264c17.197 0 31.13-13.932 31.13-31.13v-130.099c0-11.311 9.169-20.48 20.48-20.48s20.48 9.169 20.48 20.48v130.099c0 39.819-32.271 72.090-72.090 72.090h-75.264c-39.819 0-72.090-32.271-72.090-72.090v-130.099c0-11.311 9.169-20.48 20.48-20.48s20.48 9.169 20.48 20.48z" />
<glyph unicode="&#xe93e;" glyph-name="books_supplies" d="M603.648 418.304h223.631c11.311 0 20.48 9.169 20.48 20.48s-9.169 20.48-20.48 20.48h-223.631c-11.311 0-20.48-9.169-20.48-20.48s9.169-20.48 20.48-20.48zM194.358 718.336h223.631c11.311 0 20.48 9.169 20.48 20.48s-9.169 20.48-20.48 20.48h-223.631c-11.311 0-20.48-9.169-20.48-20.48s9.169-20.48 20.48-20.48zM593.987 541.184h285.737c16.962 0 30.72-13.758 30.72-30.72v-441.006c0-16.962-13.758-30.72-30.72-30.72h-317.44c-16.968 0-30.72 13.754-30.72 30.72v39.281c0 11.311-9.169 20.48-20.48 20.48s-20.48-9.169-20.48-20.48v-39.281c0-39.586 32.089-71.68 71.68-71.68h317.44c39.583 0 71.68 32.097 71.68 71.68v441.006c0 39.583-32.097 71.68-71.68 71.68h-285.737c-11.311 0-20.48-9.169-20.48-20.48s9.169-20.48 20.48-20.48zM152.747 250.88h359.086c11.311 0 20.48 9.169 20.48 20.48s-9.169 20.48-20.48 20.48h-359.086c-11.311 0-20.48-9.169-20.48-20.48s9.169-20.48 20.48-20.48zM512 210.432h-368.64c-16.962 0-30.72 13.758-30.72 30.72v565.248c0 16.962 13.758 30.72 30.72 30.72h317.44c16.962 0 30.72-13.758 30.72-30.72v-396.8c0-11.311 9.169-20.48 20.48-20.48s20.48 9.169 20.48 20.48v396.8c0 39.583-32.097 71.68-71.68 71.68h-317.44c-39.583 0-71.68-32.097-71.68-71.68v-565.248c0-39.583 32.097-71.68 71.68-71.68h368.64c11.311 0 20.48 9.169 20.48 20.48s-9.169 20.48-20.48 20.48zM491.571 510.72v-106.24c0-16.962-13.758-30.72-30.72-30.72h-229.12v-40.96h229.12c39.583 0 71.68 32.097 71.68 71.68v106.24h-40.96zM112.64 257.229v44.8c0 16.962 13.758 30.72 30.72 30.72h229.12v40.96h-229.12c-39.583 0-71.68-32.097-71.68-71.68v-44.8h40.96z" />
<glyph unicode="&#xe93f;" glyph-name="bucket" d="M829.44 504.228c5.657 0 10.24 4.583 10.24 10.24v81.92c0 5.657-4.583 10.24-10.24 10.24h-634.88c-5.657 0-10.24-4.583-10.24-10.24v-81.92c0-5.657 4.583-10.24 10.24-10.24h634.88zM829.44 463.268h-634.88c-28.278 0-51.2 22.922-51.2 51.2v81.92c0 28.278 22.922 51.2 51.2 51.2h634.88c28.278 0 51.2-22.922 51.2-51.2v-81.92c0-28.278-22.922-51.2-51.2-51.2zM222.385 627.517c0 161.004 130.521 291.523 291.523 291.523 161.010 0 291.533-130.517 291.533-291.523 0-11.311 9.169-20.48 20.48-20.48s20.48 9.169 20.48 20.48c0 183.628-148.862 332.483-332.493 332.483-183.623 0-332.483-148.856-332.483-332.483 0-11.311 9.169-20.48 20.48-20.48s20.48 9.169 20.48 20.48zM803.84 482.212v-495.616c0-5.657-4.583-10.24-10.24-10.24h-563.2c-5.657 0-10.24 4.583-10.24 10.24v486.4c0 11.311-9.169 20.48-20.48 20.48s-20.48-9.169-20.48-20.48v-486.4c0-28.278 22.922-51.2 51.2-51.2h563.2c28.278 0 51.2 22.922 51.2 51.2v495.616c0 11.311-9.169 20.48-20.48 20.48s-20.48-9.169-20.48-20.48z" />
<glyph unicode="&#xe940;" glyph-name="bug" d="M753.562 410.241c0-218.22-107.439-398.322-247.834-401.291-139.523 2.969-246.963 183.070-246.963 401.291 0 65.205 9.608 128.187 27.779 184.756 16.473 51.291 63.593 86.020 116.738 86.020h205.763c53.141 0 100.251-34.725 116.738-86.020 18.171-56.57 27.779-119.552 27.779-184.757zM712.602 410.241c0 61.007-8.963 119.763-25.816 172.227-11.068 34.434-42.481 57.59-77.741 57.59h-205.763c-35.263 0-66.683-23.158-77.74-57.586-16.853-52.467-25.817-111.223-25.817-172.23 0-198.793 94.95-357.958 206.003-360.34 111.924 2.382 206.874 161.547 206.874 360.34zM509.161 49.776v-40.96h-6.001v40.96c-0.057 0 0.034 0.004 0.347 0.021l0.155 0.009c0.791 0.046 1.377 0.074 2.917 0.089 0.704-0.014 1.29-0.042 2.081-0.089l0.155-0.009c0.313-0.018 0.404-0.021 0.347-0.021zM506.579 8.943c-0.702-0.001-0.78-0.001-0.417-0.021 0.373 0.020 0.382 0.021 0.417 0.021zM505.992 8.912l-0.178-0.010c-1.032-0.058-1.739-0.086-2.654-0.086-27.307 0-27.307 40.96 0 40.96h6.001c27.307 0 27.307-40.96 0-40.96-0.915 0-1.622 0.028-2.654 0.086l-0.178 0.010c-0.064 0.003-0.12 0.007-0.168 0.009-0.050-0.003-0.106-0.006-0.169-0.009zM485.682 660.54v-620.626h40.96v620.626zM301.336 627.113c-68.823 12.443-131.941 42.462-184.764 86.954-8.651 7.287-21.571 6.18-28.858-2.471s-6.18-21.571 2.471-28.858c58.249-49.062 127.936-82.205 203.864-95.932 11.13-2.012 21.785 5.379 23.797 16.51s-5.379 21.785-16.51 23.797zM335.337 149.001c-83.243-15.051-159.65-51.391-223.496-105.181-8.65-7.288-9.755-20.208-2.467-28.858s20.208-9.755 28.858-2.467c58.42 49.218 128.255 82.433 204.393 96.199 11.13 2.012 18.522 12.667 16.51 23.797s-12.667 18.522-23.797 16.51zM92.16 374.486h180.275c11.311 0 20.48 9.169 20.48 20.48s-9.169 20.48-20.48 20.48h-180.275c-11.311 0-20.48-9.169-20.48-20.48s9.169-20.48 20.48-20.48zM729.952 586.806c75.928 13.728 145.615 46.871 203.864 95.932 8.651 7.287 9.757 20.206 2.471 28.858s-20.206 9.757-28.858 2.471c-52.824-44.492-115.941-74.511-184.764-86.954-11.13-2.012-18.522-12.667-16.51-23.797s12.667-18.522 23.797-16.51zM670.111 108.695c76.137-13.766 145.973-46.981 204.393-96.199 8.65-7.288 21.57-6.183 28.858 2.467s6.183 21.57-2.467 28.858c-63.846 53.79-140.253 90.13-223.496 105.181-11.13 2.012-21.785-5.379-23.797-16.51s5.379-21.785 16.51-23.797zM931.84 415.446h-180.275c-11.311 0-20.48-9.169-20.48-20.48s9.169-20.48 20.48-20.48h180.275c11.311 0 20.48 9.169 20.48 20.48s-9.169 20.48-20.48 20.48zM366.066 654.104c-3.8 13.538-5.751 27.647-5.751 42.041 0 83.625 65.935 151.214 147.016 151.214s147.016-67.589 147.016-151.214c0-14.692-2.035-29.092-5.997-42.916l39.375-11.284c5.010 17.482 7.582 35.68 7.582 54.2 0 106.023-84.043 192.174-187.976 192.174s-187.976-86.151-187.976-192.174c0-18.144 2.466-35.977 7.275-53.109l39.436 11.069z" />
<glyph unicode="&#xe941;" glyph-name="bulb" d="M492.373 939.518v-76.401c0-11.311 9.169-20.48 20.48-20.48s20.48 9.169 20.48 20.48v76.401c0 11.311-9.169 20.48-20.48 20.48s-20.48-9.169-20.48-20.48zM222.669 847.061l38.195-66.161c5.655-9.796 18.18-13.152 27.976-7.497s13.152 18.18 7.497 27.976l-38.195 66.161c-5.655 9.796-18.18 13.152-27.976 7.497s-13.152-18.18-7.497-27.976zM61.441 649.334l66.161-38.195c9.796-5.655 22.321-2.299 27.976 7.497s2.299 22.321-7.497 27.976l-66.161 38.195c-9.796 5.655-22.321 2.299-27.976-7.497s-2.299-22.321 7.497-27.976zM898.101 611.134l66.161 38.195c9.796 5.655 13.152 18.18 7.497 27.976s-18.18 13.152-27.976 7.497l-66.161-38.195c-9.796-5.655-13.152-18.18-7.497-27.976s18.18-13.152 27.976-7.497zM764.837 780.897l38.195 66.161c5.655 9.796 2.299 22.321-7.497 27.976s-22.321 2.299-27.976-7.497l-38.195-66.161c-5.655-9.796-2.299-22.321 7.497-27.976s22.321-2.299 27.976 7.497zM619.705 350.452c0 6.809 3.384 13.172 9.029 16.979 53.847 36.315 86.469 95.279 86.469 159.497 0 107.392-90.442 194.744-202.353 194.744s-202.353-87.353-202.353-194.744c0-64.218 32.623-123.181 86.469-159.497 5.645-3.807 9.029-10.171 9.029-16.979v-181.903c0-22.143 17.946-40.090 40.090-40.090h133.54c22.134 0 40.079 17.947 40.079 40.090v181.903zM660.665 168.548c0-44.763-36.283-81.050-81.039-81.050h-133.54c-44.765 0-81.050 36.285-81.050 81.050v171.312c-59.555 44.178-95.498 112.657-95.498 187.067 0 130.338 109.092 235.704 243.313 235.704s243.313-105.366 243.313-235.704c0-74.41-35.943-142.89-95.498-187.067v-171.312zM410.986 10.946h203.735c11.311 0 20.48 9.169 20.48 20.48s-9.169 20.48-20.48 20.48h-203.735c-11.311 0-20.48-9.169-20.48-20.48s9.169-20.48 20.48-20.48zM436.453-65.454h152.801c11.311 0 20.48 9.169 20.48 20.48s-9.169 20.48-20.48 20.48h-152.801c-11.311 0-20.48-9.169-20.48-20.48s9.169-20.48 20.48-20.48z" />
<glyph unicode="&#xe942;" glyph-name="bus_fare" d="M787.689 202.24c28.277 0 51.2 22.923 51.2 51.2v583.68c0 28.277-22.923 51.2-51.2 51.2h-552.172c-28.277 0-51.2-22.923-51.2-51.2v-583.68c0-28.277 22.923-51.2 51.2-51.2h552.172zM787.689 161.28h-552.172c-50.899 0-92.16 41.261-92.16 92.16v583.68c0 50.899 41.261 92.16 92.16 92.16h552.172c50.899 0 92.16-41.261 92.16-92.16v-583.68c0-50.899-41.261-92.16-92.16-92.16zM337.998 300.544c0-31.109-25.211-56.32-56.32-56.32s-56.32 25.211-56.32 56.32c0 31.109 25.211 56.32 56.32 56.32s56.32-25.211 56.32-56.32zM797.774 300.544c0-31.109-25.211-56.32-56.32-56.32s-56.32 25.211-56.32 56.32c0 31.109 25.211 56.32 56.32 56.32s56.32-25.211 56.32-56.32zM409.422 280.064h204.8c11.311 0 20.48 9.169 20.48 20.48s-9.169 20.48-20.48 20.48h-204.8c-11.311 0-20.48-9.169-20.48-20.48s9.169-20.48 20.48-20.48zM163.84 398.507h695.532c11.311 0 20.48 9.169 20.48 20.48s-9.169 20.48-20.48 20.48h-695.532c-11.311 0-20.48-9.169-20.48-20.48s9.169-20.48 20.48-20.48zM163.84 744.619h695.532c11.311 0 20.48 9.169 20.48 20.48s-9.169 20.48-20.48 20.48h-695.532c-11.311 0-20.48-9.169-20.48-20.48s9.169-20.48 20.48-20.48zM340.148 120.736v-62.648c0-24.112-19.291-43.581-42.998-43.581h-6.164c-23.707 0-42.998 19.469-42.998 43.581v62.915c0 11.311-9.169 20.48-20.48 20.48s-20.48-9.169-20.48-20.48v-62.915c0-46.65 37.544-84.541 83.958-84.541h6.164c46.413 0 83.958 37.892 83.958 84.541v62.648c0 11.311-9.169 20.48-20.48 20.48s-20.48-9.169-20.48-20.48zM778.42 120.736v-62.648c0-24.112-19.291-43.581-42.998-43.581h-6.164c-23.707 0-42.998 19.469-42.998 43.581v62.915c0 11.311-9.169 20.48-20.48 20.48s-20.48-9.169-20.48-20.48v-62.915c0-46.65 37.544-84.541 83.958-84.541h6.164c46.413 0 83.958 37.892 83.958 84.541v62.648c0 11.311-9.169 20.48-20.48 20.48s-20.48-9.169-20.48-20.48z" />
<glyph unicode="&#xe943;" glyph-name="bus" d="M126.030 215.896h-53.811c-17.312 0-31.263 13.802-31.263 30.72v488.11c0 16.912 13.955 30.72 31.263 30.72h879.565c17.311 0 31.252-13.801 31.252-30.72v-488.11c0-16.926-13.937-30.72-31.252-30.72h-42.639c-11.311 0-20.48-9.169-20.48-20.48s9.169-20.48 20.48-20.48h42.639c39.843 0 72.212 32.038 72.212 71.68v488.11c0 39.635-32.373 71.68-72.212 71.68h-879.565c-39.833 0-72.223-32.049-72.223-71.68v-488.11c0-39.639 32.387-71.68 72.223-71.68h53.811c11.311 0 20.48 9.169 20.48 20.48s-9.169 20.48-20.48 20.48zM693.76 215.896h-358.912c-11.311 0-20.48-9.169-20.48-20.48s9.169-20.48 20.48-20.48h358.912c11.311 0 20.48 9.169 20.48 20.48s-9.169 20.48-20.48 20.48zM993.28 492.17h-97.812c-16.962 0-30.72 13.758-30.72 30.72v243.579c0 11.311-9.169 20.48-20.48 20.48s-20.48-9.169-20.48-20.48v-243.579c0-39.583 32.097-71.68 71.68-71.68h97.812c11.311 0 20.48 9.169 20.48 20.48s-9.169 20.48-20.48 20.48zM884.53 195.416c0 45.238-36.679 81.92-81.92 81.92-45.234 0-81.92-36.686-81.92-81.92 0-45.241 36.682-81.92 81.92-81.92 45.245 0 81.92 36.675 81.92 81.92zM925.49 195.416c0-67.866-55.014-122.88-122.88-122.88-67.859 0-122.88 55.017-122.88 122.88 0 67.856 55.024 122.88 122.88 122.88 67.863 0 122.88-55.021 122.88-122.88zM314.37 195.416c0 45.234-36.686 81.92-81.92 81.92-45.241 0-81.92-36.682-81.92-81.92 0-45.245 36.675-81.92 81.92-81.92 45.238 0 81.92 36.679 81.92 81.92zM355.33 195.416c0-67.863-55.021-122.88-122.88-122.88-67.866 0-122.88 55.014-122.88 122.88 0 67.859 55.017 122.88 122.88 122.88 67.856 0 122.88-55.024 122.88-122.88zM698.030 214.106h-363.182c-11.311 0-20.48-9.169-20.48-20.48s9.169-20.48 20.48-20.48h363.182c11.311 0 20.48 9.169 20.48 20.48s-9.169 20.48-20.48 20.48zM1003.52 370.176h-84.746c-11.311 0-20.48-9.169-20.48-20.48s9.169-20.48 20.48-20.48h84.746c11.311 0 20.48 9.169 20.48 20.48s-9.169 20.48-20.48 20.48zM725.76 491.915v175.452h-102.4v-175.452h102.4zM725.76 450.955h-102.4c-22.616 0-40.96 18.344-40.96 40.96v175.452c0 22.624 18.342 40.96 40.96 40.96h102.4c22.618 0 40.96-18.336 40.96-40.96v-175.452c0-22.616-18.344-40.96-40.96-40.96zM481.935 491.915v175.452h-102.4v-175.452h102.4zM481.935 450.955h-102.4c-22.616 0-40.96 18.344-40.96 40.96v175.452c0 22.624 18.342 40.96 40.96 40.96h102.4c22.618 0 40.96-18.336 40.96-40.96v-175.452c0-22.616-18.344-40.96-40.96-40.96zM238.11 491.915v175.452h-102.4v-175.452h102.4zM238.11 450.955h-102.4c-22.616 0-40.96 18.344-40.96 40.96v175.452c0 22.624 18.342 40.96 40.96 40.96h102.4c22.618 0 40.96-18.336 40.96-40.96v-175.452c0-22.616-18.344-40.96-40.96-40.96z" />
<glyph unicode="&#xe944;" glyph-name="business_trip_fee" d="M808.36 68.434c16.962 0 30.72 13.758 30.72 30.72v467.63c0 16.962-13.758 30.72-30.72 30.72h-593.316c-16.968 0-30.72-13.754-30.72-30.72v-467.63c0-16.966 13.752-30.72 30.72-30.72h593.316zM808.36 27.474h-593.316c-39.591 0-71.68 32.094-71.68 71.68v467.63c0 39.586 32.089 71.68 71.68 71.68h593.316c39.583 0 71.68-32.097 71.68-71.68v-467.63c0-39.583-32.097-71.68-71.68-71.68zM167.943 390.997h670.444c11.311 0 20.48 9.169 20.48 20.48s-9.169 20.48-20.48 20.48h-670.444c-11.311 0-20.48-9.169-20.48-20.48s9.169-20.48 20.48-20.48zM167.943 216.917h670.444c11.311 0 20.48 9.169 20.48 20.48s-9.169 20.48-20.48 20.48h-670.444c-11.311 0-20.48-9.169-20.48-20.48s9.169-20.48 20.48-20.48zM291.54-7.339c0-8.483 6.877-15.36 15.36-15.36s15.36 6.877 15.36 15.36v34.816h-30.72v-34.816zM306.9-63.659c-31.105 0-56.32 25.215-56.32 56.32v75.776h112.64v-75.776c0-31.105-25.215-56.32-56.32-56.32zM701.14-7.339c0-8.483 6.877-15.36 15.36-15.36s15.36 6.877 15.36 15.36v34.816h-30.72v-34.816zM716.5-63.659c-31.105 0-56.32 25.215-56.32 56.32v75.776h112.64v-75.776c0-31.105-25.215-56.32-56.32-56.32zM257.201 919.040h509c11.311 0 20.48 9.169 20.48 20.48s-9.169 20.48-20.48 20.48h-509c-11.311 0-20.48-9.169-20.48-20.48s9.169-20.48 20.48-20.48zM345.948 939.52v-321.536c0-11.311 9.169-20.48 20.48-20.48s20.48 9.169 20.48 20.48v321.536c0 11.311-9.169 20.48-20.48 20.48s-20.48-9.169-20.48-20.48zM653.148 939.52v-321.536c0-11.311 9.169-20.48 20.48-20.48s20.48 9.169 20.48 20.48v321.536c0 11.311-9.169 20.48-20.48 20.48s-20.48-9.169-20.48-20.48z" />
<glyph unicode="&#xe945;" glyph-name="buy" d="M379.141 487.633h-164.106c-16.962 0-30.72 13.758-30.72 30.72v369.971c0 16.962 13.758 30.72 30.72 30.72h591.8c16.962 0 30.72-13.758 30.72-30.72v-364.851c0-16.962-13.758-30.72-30.72-30.72h-96.768v-40.96h96.768c39.583 0 71.68 32.097 71.68 71.68v364.851c0 39.583-32.097 71.68-71.68 71.68h-591.8c-39.583 0-71.68-32.097-71.68-71.68v-369.971c0-39.583 32.097-71.68 71.68-71.68h164.106v40.96zM550.66 794.472c0 23.331-18.909 42.24-42.24 42.24s-42.24-18.909-42.24-42.24c0-23.331 18.909-42.24 42.24-42.24s42.24 18.909 42.24 42.24zM591.62 794.472c0-45.953-37.247-83.2-83.2-83.2s-83.2 37.247-83.2 83.2c0 45.953 37.247 83.2 83.2 83.2s83.2-37.247 83.2-83.2zM272.9 634.472h474.88c11.311 0 20.48 9.169 20.48 20.48s-9.169 20.48-20.48 20.48h-474.88c-11.311 0-20.48-9.169-20.48-20.48s9.169-20.48 20.48-20.48zM272.9 542.312h252.672c11.311 0 20.48 9.169 20.48 20.48s-9.169 20.48-20.48 20.48h-252.672c-11.311 0-20.48-9.169-20.48-20.48s9.169-20.48 20.48-20.48zM597.725 446.731c11.311 0 20.48 9.169 20.48 20.48s-9.169 20.48-20.48 20.48h-266.783c-11.311 0-20.48-9.169-20.48-20.48v-106.26c0-9.659 2.274-19.181 6.638-27.787l61.112-120.504c2.914-5.74 4.431-12.086 4.431-18.528v-237.189c0-11.311 9.169-20.48 20.48-20.48s20.48 9.169 20.48 20.48v237.189c0 12.883-3.035 25.582-8.865 37.063l-61.108 120.496c-1.451 2.861-2.209 6.036-2.209 9.261v85.78h246.303zM638.643-43.057v219.187c0 14.411 6.072 28.151 16.723 37.846l46.466 42.328c17.047 15.518 26.759 37.502 26.759 60.565v105.359c0 11.311-9.169 20.48-20.48 20.48s-20.48-9.169-20.48-20.48v-105.359c0-11.534-4.854-22.521-13.377-30.28l-46.464-42.327c-19.175-17.451-30.107-42.191-30.107-68.132v-219.187c0-11.311 9.169-20.48 20.48-20.48s20.48 9.169 20.48 20.48zM625.769 414.842v119.122c0 16.968 13.754 30.72 30.72 30.72 17.396 0 31.15-13.752 31.15-30.72v-139.602c0-11.311 9.169-20.48 20.48-20.48s20.48 9.169 20.48 20.48v139.602c0 39.591-32.094 71.68-71.68 71.68-40.016 0-72.11-32.089-72.11-71.68v-119.122c0-11.311 9.169-20.48 20.48-20.48s20.48 9.169 20.48 20.48z" />
<glyph unicode="&#xe946;" glyph-name="cafe_coffee_shop" d="M962.26 628.773c0 35.404-28.433 64.041-63.437 64.041s-63.437-28.636-63.437-64.041c0-35.404 28.433-64.041 63.437-64.041s63.437 28.636 63.437 64.041zM1003.22 628.773c0-57.961-46.705-105.001-104.397-105.001s-104.397 47.040-104.397 105.001c0 57.961 46.705 105.001 104.397 105.001s104.397-47.040 104.397-105.001zM791.244 676.333c0 49.716-124.664 99.348-280.494 99.348-155.822 0-280.484-49.633-280.484-99.348s124.662-99.348 280.484-99.348c155.831 0 280.494 49.633 280.494 99.348zM832.204 676.333c0-82.646-144.832-140.308-321.454-140.308-176.614 0-321.444 57.663-321.444 140.308s144.83 140.308 321.444 140.308c176.622 0 321.454-57.662 321.454-140.308zM792.404 676.871v-84.705c0-156.652-127.623-283.679-285.102-283.679-152.954 0-276.91 123.372-276.91 275.517v92.867h-40.96v-92.867c0-174.81 142.338-316.477 317.87-316.477 180.058 0 326.062 145.322 326.062 324.639v84.705h-40.96zM863.042 405.585c77.863-32.638 119.994-73.652 119.994-112.829 0-89.94-210.031-172.329-471.040-172.329-261.002 0-471.040 82.391-471.040 172.329 0 39.683 43.249 81.235 122.886 114.029 10.459 4.307 15.446 16.277 11.139 26.736s-16.277 15.446-26.736 11.139c-93.312-38.426-148.249-91.208-148.249-151.904 0-123.031 230.093-213.289 512-213.289 281.914 0 512 90.256 512 213.289 0 60.011-53.696 112.282-145.119 150.605-10.431 4.373-22.432-0.539-26.805-10.97s0.539-22.432 10.97-26.805z" />
<glyph unicode="&#xe947;" glyph-name="calender" d="M266.815 422.292c0-22.62-18.34-40.96-40.96-40.96s-40.96 18.34-40.96 40.96c0 22.62 18.34 40.96 40.96 40.96s40.96-18.34 40.96-40.96zM449.585 422.292c0-22.62-18.34-40.96-40.96-40.96s-40.96 18.34-40.96 40.96c0 22.62 18.34 40.96 40.96 40.96s40.96-18.34 40.96-40.96zM632.36 422.292c0-22.62-18.34-40.96-40.96-40.96s-40.96 18.34-40.96 40.96c0 22.62 18.34 40.96 40.96 40.96s40.96-18.34 40.96-40.96zM815.13 422.292c0-22.62-18.34-40.96-40.96-40.96s-40.96 18.34-40.96 40.96c0 22.62 18.34 40.96 40.96 40.96s40.96-18.34 40.96-40.96zM266.815 280.653c0-22.62-18.34-40.96-40.96-40.96s-40.96 18.34-40.96 40.96c0 22.62 18.34 40.96 40.96 40.96s40.96-18.34 40.96-40.96zM449.585 280.653c0-22.62-18.34-40.96-40.96-40.96s-40.96 18.34-40.96 40.96c0 22.62 18.34 40.96 40.96 40.96s40.96-18.34 40.96-40.96zM632.36 280.653c0-22.62-18.34-40.96-40.96-40.96s-40.96 18.34-40.96 40.96c0 22.62 18.34 40.96 40.96 40.96s40.96-18.34 40.96-40.96zM815.13 280.653c0-22.62-18.34-40.96-40.96-40.96s-40.96 18.34-40.96 40.96c0 22.62 18.34 40.96 40.96 40.96s40.96-18.34 40.96-40.96zM266.815 139.012c0-22.62-18.34-40.96-40.96-40.96s-40.96 18.34-40.96 40.96c0 22.62 18.34 40.96 40.96 40.96s40.96-18.34 40.96-40.96zM449.585 139.012c0-22.62-18.34-40.96-40.96-40.96s-40.96 18.34-40.96 40.96c0 22.62 18.34 40.96 40.96 40.96s40.96-18.34 40.96-40.96zM632.36 139.012c0-22.62-18.34-40.96-40.96-40.96s-40.96 18.34-40.96 40.96c0 22.62 18.34 40.96 40.96 40.96s40.96-18.34 40.96-40.96zM815.13 139.012c0-22.62-18.34-40.96-40.96-40.96s-40.96 18.34-40.96 40.96c0 22.62 18.34 40.96 40.96 40.96s40.96-18.34 40.96-40.96zM228.18 878.082v-153.6c0-11.311 9.169-20.48 20.48-20.48s20.48 9.169 20.48 20.48v153.6c0 11.311-9.169 20.48-20.48 20.48s-20.48-9.169-20.48-20.48zM756.27 878.082v-153.6c0-11.311 9.169-20.48 20.48-20.48s20.48 9.169 20.48 20.48v153.6c0 11.311-9.169 20.48-20.48 20.48s-20.48-9.169-20.48-20.48zM890.877 822.483c33.931 0 61.44-27.509 61.44-61.44v-703.375c0-33.931-27.509-61.44-61.44-61.44h-757.76c-33.931 0-61.44 27.509-61.44 61.44v703.375c0 33.931 27.509 61.44 61.44 61.44h757.76zM133.117 781.523c-11.309 0-20.48-9.171-20.48-20.48v-703.375c0-11.309 9.171-20.48 20.48-20.48h757.76c11.309 0 20.48 9.171 20.48 20.48v703.375c0 11.309-9.171 20.48-20.48 20.48h-757.76zM575.030 621.712c0 33.93-27.51 61.44-61.44 61.44s-61.44-27.51-61.44-61.44c0-33.93 27.51-61.44 61.44-61.44s61.44 27.51 61.44 61.44zM615.99 621.712c0-56.551-45.849-102.4-102.4-102.4s-102.4 45.849-102.4 102.4c0 56.551 45.849 102.4 102.4 102.4s102.4-45.849 102.4-102.4z" />
<glyph unicode="&#xe948;" glyph-name="card_payment" d="M952.32 120.32c16.962 0 30.72 13.758 30.72 30.72v593.92c0 16.962-13.758 30.72-30.72 30.72h-880.64c-16.962 0-30.72-13.758-30.72-30.72v-593.92c0-16.962 13.758-30.72 30.72-30.72h880.64zM952.32 79.36h-880.64c-39.583 0-71.68 32.097-71.68 71.68v593.92c0 39.583 32.097 71.68 71.68 71.68h880.64c39.583 0 71.68-32.097 71.68-71.68v-593.92c0-39.583-32.097-71.68-71.68-71.68zM23.48 651.932h980.040v40.96h-980.040zM358.508 500.985h249.856c70.128 0 126.976-56.848 126.976-126.976v-4.096c0-70.128-56.848-126.976-126.976-126.976h-294.912c-11.311 0-20.48-9.169-20.48-20.48s9.169-20.48 20.48-20.48h294.912c92.75 0 167.936 75.186 167.936 167.936v4.096c0 92.75-75.186 167.936-167.936 167.936h-249.856c-11.311 0-20.48-9.169-20.48-20.48s9.169-20.48 20.48-20.48zM374.948 608.578l-70.963-70.963c-7.998-7.998-7.998-20.965 0-28.963s20.965-7.998 28.963 0l70.963 70.963c7.998 7.998 7.998 20.965 0 28.963s-20.965 7.998-28.963 0zM402.173 464.631l-70.963 70.963c-7.998 7.998-20.965 7.998-28.963 0s-7.998-20.965 0-28.963l70.963-70.963c7.998-7.998 20.965-7.998 28.963 0s7.998 20.965 0 28.963z" />
<glyph unicode="&#xe949;" glyph-name="cash_atm" d="M300.426 332.816h-85.381c-16.968 0-30.72 13.754-30.72 30.72v524.78c0 16.972 13.748 30.72 30.72 30.72h593.92c16.966 0 30.72-13.752 30.72-30.72v-524.78c0-16.962-13.758-30.72-30.72-30.72h-108.329c-11.311 0-20.48-9.169-20.48-20.48s9.169-20.48 20.48-20.48h108.329c39.583 0 71.68 32.097 71.68 71.68v524.78c0 39.591-32.094 71.68-71.68 71.68h-593.92c-39.594 0-71.68-32.086-71.68-71.68v-524.78c0-39.586 32.089-71.68 71.68-71.68h85.381c11.311 0 20.48 9.169 20.48 20.48s-9.169 20.48-20.48 20.48zM295.58 605.555h432.845c11.311 0 20.48 9.169 20.48 20.48s-9.169 20.48-20.48 20.48h-432.845c-11.311 0-20.48-9.169-20.48-20.48s9.169-20.48 20.48-20.48zM696.814 449.288c-11.311 0-20.48-9.169-20.48-20.48s9.169-20.48 20.48-20.48h31.785c31.693 0 49.84 27.858 37.045 56.848l-74.63 169.024c-4.569 10.347-16.66 15.031-27.007 10.463s-15.031-16.66-10.463-27.007l74.341-168.368h-31.070zM370.456 617.656c4.569 10.347-0.116 22.439-10.463 27.007s-22.439-0.116-27.007-10.463l-74.629-169.021c-12.796-28.993 5.351-56.851 37.044-56.851h277.545c11.311 0 20.48 9.169 20.48 20.48s-9.169 20.48-20.48 20.48h-276.83l74.341 168.368zM548.192 611.997c0-20.325-16.476-36.803-36.803-36.803-20.321 0-36.803 16.482-36.803 36.803 0 11.311-9.169 20.48-20.48 20.48s-20.48-9.169-20.48-20.48c0-42.942 34.82-77.763 77.763-77.763 42.949 0 77.763 34.817 77.763 77.763 0 11.311-9.169 20.48-20.48 20.48s-20.48-9.169-20.48-20.48zM567.669 407.962c11.311 0 20.48 9.169 20.48 20.48s-9.169 20.48-20.48 20.48h-266.783c-11.311 0-20.48-9.169-20.48-20.48v-106.26c0-9.659 2.274-19.181 6.638-27.787l61.112-120.504c2.914-5.74 4.431-12.086 4.431-18.528v-197.253c0-11.311 9.169-20.48 20.48-20.48s20.48 9.169 20.48 20.48v197.253c0 12.883-3.035 25.582-8.865 37.063l-61.108 120.496c-1.451 2.861-2.209 6.036-2.209 9.261v85.78h246.303zM608.587-41.891v179.251c0 14.411 6.072 28.151 16.723 37.846l46.466 42.328c17.047 15.518 26.759 37.502 26.759 60.565v105.359c0 11.311-9.169 20.48-20.48 20.48s-20.48-9.169-20.48-20.48v-105.359c0-11.534-4.854-22.521-13.377-30.28l-46.464-42.327c-19.175-17.451-30.107-42.191-30.107-68.132v-179.251c0-11.311 9.169-20.48 20.48-20.48s20.48 9.169 20.48 20.48zM595.712 376.072v78.162c0 16.968 13.754 30.72 30.72 30.72 17.396 0 31.15-13.752 31.15-30.72v-98.642c0-11.311 9.169-20.48 20.48-20.48s20.48 9.169 20.48 20.48v98.642c0 39.591-32.094 71.68-71.68 71.68-40.016 0-72.11-32.089-72.11-71.68v-78.162c0-11.311 9.169-20.48 20.48-20.48s20.48 9.169 20.48 20.48z" />
<glyph unicode="&#xe94a;" glyph-name="cash_gift" d="M809.298-23.040c16.962 0 30.72 13.758 30.72 30.72v880.64c0 16.962-13.758 30.72-30.72 30.72h-594.258c-16.962 0-30.72-13.758-30.72-30.72v-880.64c0-16.962 13.758-30.72 30.72-30.72h594.258zM809.298-64h-594.258c-39.583 0-71.68 32.097-71.68 71.68v880.64c0 39.583 32.097 71.68 71.68 71.68h594.258c39.583 0 71.68-32.097 71.68-71.68v-880.64c0-39.583-32.097-71.68-71.68-71.68zM164.009 426.287h696.32c11.311 0 20.48 9.169 20.48 20.48s-9.169 20.48-20.48 20.48h-696.32c-11.311 0-20.48-9.169-20.48-20.48s9.169-20.48 20.48-20.48zM491.368 448.64c0-118.411-95.987-214.395-214.405-214.395-11.311 0-20.48-9.169-20.48-20.48s9.169-20.48 20.48-20.48c141.040 0 255.365 114.322 255.365 255.355 0 11.311-9.169 20.48-20.48 20.48s-20.48-9.169-20.48-20.48zM492.008 448.64c0-141.031 114.324-255.355 255.355-255.355 11.311 0 20.48 9.169 20.48 20.48s-9.169 20.48-20.48 20.48c-118.41 0-214.395 95.985-214.395 214.395 0 11.311-9.169 20.48-20.48 20.48s-20.48-9.169-20.48-20.48zM492.004 479.488v39.506c0 50.068-40.587 90.655-90.655 90.655-27.468 0-49.746-22.278-49.746-49.746 0-50.068 40.587-90.655 90.655-90.655h39.506c5.585 0 10.24 4.655 10.24 10.24zM532.964 479.488c0-28.207-22.993-51.2-51.2-51.2h-39.506c-72.689 0-131.615 58.925-131.615 131.615 0 50.090 40.616 90.706 90.706 90.706 72.689 0 131.615-58.925 131.615-131.615v-39.506zM492.284 479.488v39.506c0 72.689 58.925 131.615 131.615 131.615 50.090 0 90.706-40.616 90.706-90.706 0-72.689-58.925-131.615-131.615-131.615h-39.506c-28.207 0-51.2 22.993-51.2 51.2zM533.244 479.488c0-5.585 4.655-10.24 10.24-10.24h39.506c50.068 0 90.655 40.587 90.655 90.655 0 27.468-22.278 49.746-49.746 49.746-50.068 0-90.655-40.587-90.655-90.655v-39.506zM456.183 428.432h109.916c11.311 0 20.48 9.169 20.48 20.48s-9.169 20.48-20.48 20.48h-109.916c-11.311 0-20.48-9.169-20.48-20.48s9.169-20.48 20.48-20.48z" />
<glyph unicode="&#xe94b;" glyph-name="charity" d="M640.172 788.876c119.859-14.637 199.51-49.612 199.51-76.982 0-15.683-30.577-37.475-87.407-54.605-62.809-18.932-148.567-29.865-240.273-29.865-91.711 0-177.469 10.933-240.277 29.865-56.827 17.13-87.403 38.921-87.403 54.605 0 29.366 89.458 66.158 219.676 79.227 11.254 1.13 19.462 11.169 18.332 22.423s-11.169 19.462-22.423 18.332c-151.876-15.243-256.546-58.29-256.546-119.982 0-75.871 164.41-125.43 368.64-125.43 204.223 0 368.64 49.559 368.64 125.43 0 58.893-94.601 100.433-235.505 117.64-11.227 1.371-21.44-6.619-22.812-17.846s6.619-21.44 17.846-22.812zM839.442 63.663c0-40.635-147.078-85.422-327.291-85.422s-327.291 44.787-327.291 85.422c0 0.463 0.028 0.955 0.086 1.491 1.218 11.245-6.91 21.348-18.155 22.567s-21.348-6.91-22.567-18.155c-0.214-1.973-0.324-3.936-0.324-5.902 0-76.346 164.316-126.382 368.251-126.382s368.251 50.036 368.251 126.382c0 11.311-9.169 20.48-20.48 20.48s-20.48-9.169-20.48-20.48zM143.697 706.633v-646.461c0-11.311 9.169-20.48 20.48-20.48s20.48 9.169 20.48 20.48v646.461c0 11.311-9.169 20.48-20.48 20.48s-20.48-9.169-20.48-20.48zM839.614 706.633v-646.461c0-11.311 9.169-20.48 20.48-20.48s20.48 9.169 20.48 20.48v646.461c0 11.311-9.169 20.48-20.48 20.48s-20.48-9.169-20.48-20.48zM684.132 711.249c3.451-13.322-7.557-24.218-24.453-24.218h-267.94c-16.896 0-27.894 10.895-24.443 24.218 3.441 13.322 20.091 24.218 36.987 24.218h242.862c16.896 0 33.536-10.895 36.987-24.218zM610.493 842.326c-6.258 38.164-37.244 69.15-75.408 75.408-63.532 10.421-117.494-43.538-107.066-107.067 6.258-38.163 37.244-69.149 75.408-75.407 63.53-10.42 117.486 43.536 107.066 107.066zM650.913 848.955c14.954-91.175-62.939-169.069-154.115-154.115-55.512 9.102-100.097 53.687-109.199 109.196-14.967 91.175 62.936 169.073 154.114 154.118 55.512-9.102 100.097-53.687 109.2-109.2zM671.169 421.106c47.893-47.893 47.893-125.538 0-173.419l-126.395-126.395c-17.963-17.982-47.121-17.982-65.077-0.007l-126.401 126.401c-47.895 47.883-47.895 125.527-0.004 173.419 43.311 43.322 110.971 47.458 158.939 12.411 47.968 35.047 115.628 30.911 158.937-12.41zM497.75 392.143c-31.897 31.897-83.604 31.897-115.493 0-31.897-31.897-31.897-83.604 0-115.493l126.41-126.41c1.964-1.966 5.164-1.966 7.136 0.007l126.404 126.404c31.895 31.887 31.895 83.594-0.004 115.493-31.887 31.895-83.594 31.895-115.491-0.002-7.998-7.998-20.965-7.998-28.963 0z" />
<glyph unicode="&#xe94c;" glyph-name="children" d="M356.522 656.288c50.542-32.395 76.17-87.364 51.594-125.682-24.565-38.338-85.213-38.014-135.757-5.618-6.485 4.159-12.593 8.714-18.258 13.595-14.54-20.659-34.561-39.64-58.329-54.875-69.395-44.479-151.525-44.924-183.737 5.351-32.225 50.274 2.475 124.708 71.869 169.186 57.754 37.022 124.671 43.701 164.142 15.211 29.97 13.058 72.006 6.215 108.476-17.168zM334.416 621.805c-29.846 19.136-62.199 21.927-75.69 10.658-8.543-7.136-21.222-6.141-28.548 2.24-20.325 23.251-74.607 20.829-124.17-10.942-52.732-33.798-76.844-85.522-59.487-112.601 17.347-27.073 74.417-26.764 127.147 7.033 26.801 17.179 47.328 39.842 57.785 62.662 6.411 13.99 25.384 16.176 34.809 4.011 7.303-9.427 16.926-18.164 28.203-25.395 33.877-21.713 69.465-21.903 79.168-6.759 9.7 15.124-5.338 47.379-39.217 69.094zM271.441 341.432c-9.279-22.895-31.566-38.197-56.683-38.197-25.971 0-48.852 16.351-57.527 40.378-3.841 10.639-15.579 16.149-26.218 12.309s-16.149-15.579-12.309-26.218c14.49-40.134 52.685-67.429 96.053-67.429 41.942 0 79.153 25.549 94.644 63.773 4.248 10.483-0.806 22.424-11.288 26.673s-22.424-0.806-26.673-11.288zM180.889 413.35c0-16.927-13.722-30.638-30.648-30.638-16.916 0-30.638 13.711-30.638 30.638s13.722 30.648 30.638 30.648c16.927 0 30.648-13.722 30.648-30.648zM316.085 413.35c0-16.927-13.722-30.638-30.638-30.638-16.927 0-30.648 13.711-30.648 30.638s13.722 30.648 30.648 30.648c16.916 0 30.638-13.722 30.638-30.648zM360.506 506.361c21.761-29.897 33.659-65.841 33.659-103.629 0-97.369-78.939-176.302-176.323-176.302-97.377 0-176.323 78.937-176.323 176.302 0 25.956 5.596 51.066 16.264 74.059 4.76 10.26 0.302 22.437-9.959 27.197s-22.437 0.302-27.197-9.959c-13.161-28.367-20.068-59.358-20.068-91.297 0-119.988 97.285-217.262 217.283-217.262 120.005 0 217.283 97.271 217.283 217.262 0 46.524-14.687 90.891-41.502 127.733-6.656 9.145-19.465 11.163-28.61 4.506s-11.163-19.465-4.506-28.61zM806.253 354.978c-9.279-22.895-31.566-38.197-56.683-38.197-25.971 0-48.852 16.351-57.527 40.378-3.841 10.639-15.579 16.149-26.218 12.309s-16.149-15.579-12.309-26.218c14.49-40.134 52.685-67.429 96.053-67.429 41.942 0 79.153 25.549 94.644 63.773 4.248 10.483-0.806 22.424-11.288 26.673s-22.424-0.806-26.673-11.288zM712.927 421.876c0-16.927-13.722-30.648-30.638-30.648-16.927 0-30.648 13.722-30.648 30.648s13.722 30.638 30.648 30.638c16.916 0 30.638-13.711 30.638-30.638zM848.124 421.876c0-16.927-13.722-30.648-30.638-30.648-16.927 0-30.648 13.722-30.648 30.648s13.722 30.638 30.648 30.638c16.916 0 30.638-13.711 30.638-30.638zM901.307 493.706c16.211-27.090 24.895-58.079 24.895-90.378 0-97.369-78.939-176.302-176.323-176.302-97.377 0-176.323 78.937-176.323 176.302 0 33.625 9.412 65.809 26.904 93.643 6.019 9.577 3.134 22.219-6.442 28.237s-22.219 3.134-28.237-6.442c-21.566-34.315-33.184-74.045-33.184-115.438 0-119.988 97.285-217.262 217.283-217.262 120.005 0 217.283 97.271 217.283 217.262 0 39.758-10.719 78.008-30.708 111.411-5.808 9.706-18.384 12.866-28.090 7.058s-12.866-18.384-7.058-28.090zM516.628 439.86c0 128.916 104.505 233.421 233.421 233.421 126.376 0 228.833-102.457 228.833-228.833v-113.664h-51.364c-11.311 0-20.48-9.169-20.48-20.48s9.169-20.48 20.48-20.48h54.333c20.977 0 37.99 17.013 37.99 37.99v116.634c0 148.998-120.795 269.793-269.793 269.793-151.537 0-274.381-122.843-274.381-274.381v-112.046c0-20.979 17.004-37.99 37.99-37.99h61.471c11.311 0 20.48 9.169 20.48 20.48s-9.169 20.48-20.48 20.48h-58.501v109.076zM583.592 487.068h332.913c11.311 0 20.48 9.169 20.48 20.48s-9.169 20.48-20.48 20.48h-332.913c-11.311 0-20.48-9.169-20.48-20.48s9.169-20.48 20.48-20.48z" />
<glyph unicode="&#xe94d;" glyph-name="clothing" d="M525.947 934.143l204.881-354.855c14.279-24.725 5.804-56.348-18.923-70.628l-272.664-157.421c-24.736-14.276-56.359-5.808-70.633 18.926l-204.87 354.855c-14.279 24.725-5.804 56.348 18.923 70.628l75.489 43.581c9.794 5.654 22.316 2.3 27.973-7.492l12.108-20.958c13.023-22.563 41.868-30.295 64.399-17.289l4.537 2.629c22.563 13.023 30.295 41.868 17.273 64.427l-12.104 20.961c-5.656 9.796-2.3 22.322 7.496 27.978l75.488 43.581c24.725 14.278 56.347 5.803 70.626-18.923zM203.143 760.176c-5.138-2.967-6.899-9.54-3.934-14.675l204.873-354.86c2.965-5.139 9.536-6.898 14.682-3.928l272.658 157.418c5.138 2.967 6.899 9.54 3.934 14.674l-204.881 354.855c-2.967 5.138-9.54 6.899-14.673 3.935l-57.754-33.342 1.863-3.227c24.332-42.154 9.885-96.049-32.239-120.363l-4.537-2.629c-42.154-24.332-96.049-9.885-120.377 32.263l-1.862 3.223-57.756-33.343zM224.61 618.576l-31.826-55.122c-2.967-5.141-9.534-6.9-14.672-3.933l-60.090 34.694c-5.146 2.97-6.907 9.539-3.943 14.672l83.273 144.222c5.656 9.795 2.3 22.321-7.495 27.976s-22.321 2.3-27.976-7.495l-83.272-144.22c-14.28-24.727-5.799-56.353 18.937-70.628l60.085-34.691c24.727-14.28 56.352-5.81 70.628 18.927l31.824 55.118c5.656 9.795 2.3 22.321-7.496 27.976s-22.321 2.3-27.976-7.496zM587.533 787.15h63.652c28.555 0 51.702 23.147 51.702 51.702v69.386c0 28.555-23.147 51.702-51.702 51.702h-166.523c-11.311 0-20.48-9.169-20.48-20.48s9.169-20.48 20.48-20.48h166.523c5.933 0 10.742-4.808 10.742-10.742v-69.386c0-5.933-4.808-10.742-10.742-10.742h-63.652c-11.311 0-20.48-9.169-20.48-20.48s9.169-20.48 20.48-20.48zM868.662 199.492l39.209-213.238c0.743-4.031-0.917-6.024-5.017-6.024h-464.579c-4.1 0-5.76 1.994-5.019 6.015l39.211 213.247-40.285 7.407-39.209-213.238c-5.381-29.188 15.61-54.392 45.302-54.392h464.579c29.692 0 50.683 25.203 45.3 54.401l-39.207 213.229-40.285-7.407zM868.324 270.196c0 11.309-9.171 20.48-20.48 20.48h-354.56c-11.309 0-20.48-9.171-20.48-20.48v-46.52h395.52v46.52zM431.844 182.715v87.48c0 33.931 27.509 61.44 61.44 61.44h354.56c33.931 0 61.44-27.509 61.44-61.44v-87.48h-477.44z" />
<glyph unicode="&#xe94e;" glyph-name="communication_cost" d="M249.6 332.121c51.252 0 94.075 36.59 101.642 86.128 0.939 6.151 4.624 11.541 10.015 14.649l1.403 0.809c2.822 1.627 5.992 2.558 9.246 2.715 129.082 6.21 228.845 90.344 228.845 189.924 0 103.944-108.374 190.29-244.060 190.29-135.677 0-244.050-86.347-244.050-190.29 0-72.301 52.772-138.239 135.615-170.444l5.211-2.355c7.267-3.342 11.924-10.608 11.924-18.607 0-38.067-14.927-73.572-40.338-99.877 7.942-1.942 16.168-2.942 24.548-2.942zM249.6 291.161c-25.799 0-50.657 6.823-72.477 19.569-4.011 2.040-6.981 4.659-9.087 8.124-5.873 9.666-2.798 22.264 6.868 28.137 26.777 16.27 44.692 43.707 48.682 74.745 0.558 4.338 0.844 8.746 0.844 13.204h20.48l-8.556-18.607-4.076 1.874 8.556 18.607-7.42-19.088c-3.7 1.446-6.781 2.707-9.828 4.011-92.051 39.385-151.907 117.145-151.907 204.61 0 128.871 128.495 231.25 285.010 231.25 156.524 0 285.020-102.378 285.020-231.25 0-119.569-110.956-217.066-253.246-229.833-4.828-0.433-9.693-0.769-14.591-1.004l-0.984 20.456 10.231-17.742-11.633 16.933 20.245-3.092c-0.809-5.294-1.903-10.482-3.268-15.551-16.566-61.545-72.858-105.353-138.864-105.353zM395.421 324.84c-3.138 10.867 3.128 22.22 13.994 25.358s22.22-3.128 25.358-13.994c23.262-80.558 112.798-141.479 220.731-146.68 3.26-0.157 6.434-1.091 9.26-2.723l1.382-0.799c5.382-3.11 9.061-8.496 9.999-14.64 7.485-48.997 49.848-85.197 100.546-85.197 18.284 0 35.823 4.817 51.25 13.832 9.766 5.707 22.308 2.416 28.015-7.349s2.416-22.308-7.349-28.015c-21.654-12.654-46.318-19.428-71.916-19.428-65.45 0-121.279 43.416-137.76 104.418-117.957 10.664-216.152 80.475-243.511 175.218zM850.81 100.881c9.666-5.874 12.74-18.472 6.865-28.138s-18.472-12.74-28.138-6.865c-42.287 25.699-68.673 71.583-68.673 122.001 0 8.001 4.66 15.27 11.931 18.61l4.035 1.853 1.128 0.478c82.025 31.89 134.274 97.174 134.274 168.734 0 93.259-88.667 173.58-208.080 186.57-11.244 1.223-19.368 11.33-18.145 22.575s11.33 19.368 22.575 18.145c138.63-15.080 244.61-111.085 244.61-227.29 0-86.708-59.309-163.8-150.515-202.876 3.983-30.645 21.688-57.725 48.133-73.797z" />
<glyph unicode="&#xe94f;" glyph-name="communications" d="M249.6 332.121c51.252 0 94.075 36.59 101.642 86.128 0.939 6.151 4.624 11.541 10.015 14.649l1.403 0.809c2.822 1.627 5.992 2.558 9.246 2.715 129.082 6.21 228.845 90.344 228.845 189.924 0 103.944-108.374 190.29-244.060 190.29-135.677 0-244.050-86.347-244.050-190.29 0-72.301 52.772-138.239 135.615-170.444l5.211-2.355c7.267-3.342 11.924-10.608 11.924-18.607 0-38.067-14.927-73.572-40.338-99.877 7.942-1.942 16.168-2.942 24.548-2.942zM249.6 291.161c-25.799 0-50.657 6.823-72.477 19.569-4.011 2.040-6.981 4.659-9.087 8.124-5.873 9.666-2.798 22.264 6.868 28.137 26.777 16.27 44.692 43.707 48.682 74.745 0.558 4.338 0.844 8.746 0.844 13.204h20.48l-8.556-18.607-4.076 1.874 8.556 18.607-7.42-19.088c-3.7 1.446-6.781 2.707-9.828 4.011-92.051 39.385-151.907 117.145-151.907 204.61 0 128.871 128.495 231.25 285.010 231.25 156.524 0 285.020-102.378 285.020-231.25 0-119.569-110.956-217.066-253.246-229.833-4.828-0.433-9.693-0.769-14.591-1.004l-0.984 20.456 10.231-17.742-11.633 16.933 20.245-3.092c-0.809-5.294-1.903-10.482-3.268-15.551-16.566-61.545-72.858-105.353-138.864-105.353zM395.421 324.84c-3.138 10.867 3.128 22.22 13.994 25.358s22.22-3.128 25.358-13.994c23.262-80.558 112.798-141.479 220.731-146.68 3.26-0.157 6.434-1.091 9.26-2.723l1.382-0.799c5.382-3.11 9.061-8.496 9.999-14.64 7.485-48.997 49.848-85.197 100.546-85.197 18.284 0 35.823 4.817 51.25 13.832 9.766 5.707 22.308 2.416 28.015-7.349s2.416-22.308-7.349-28.015c-21.654-12.654-46.318-19.428-71.916-19.428-65.45 0-121.279 43.416-137.76 104.418-117.957 10.664-216.152 80.475-243.511 175.218zM850.81 100.881c9.666-5.874 12.74-18.472 6.865-28.138s-18.472-12.74-28.138-6.865c-42.287 25.699-68.673 71.583-68.673 122.001 0 8.001 4.66 15.27 11.931 18.61l4.035 1.853 1.128 0.478c82.025 31.89 134.274 97.174 134.274 168.734 0 93.259-88.667 173.58-208.080 186.57-11.244 1.223-19.368 11.33-18.145 22.575s11.33 19.368 22.575 18.145c138.63-15.080 244.61-111.085 244.61-227.29 0-86.708-59.309-163.8-150.515-202.876 3.983-30.645 21.688-57.725 48.133-73.797z" />
<glyph unicode="&#xe950;" glyph-name="compass" d="M983.040 448c0 260.152-210.888 471.040-471.040 471.040s-471.040-210.888-471.040-471.040c0-260.152 210.888-471.040 471.040-471.040s471.040 210.888 471.040 471.040zM1024 448c0-282.773-229.227-512-512-512s-512 229.227-512 512c0 282.773 229.227 512 512 512s512-229.227 512-512zM319.95 261.823l224.037 128.3c11.501 6.586 27.741 22.826 34.327 34.327l128.305 224.044-224.044-128.305c-11.493-6.581-27.739-22.829-34.327-34.327l-128.297-224.040zM613.858 404.096c-10.207-17.826-31.691-39.31-49.517-49.517l-262.78-150.487c-32.776-18.768-58.125 6.565-39.346 39.337l150.49 262.794c10.212 17.82 31.697 39.31 49.514 49.512l262.78 150.487c32.78 18.771 58.117-6.567 39.346-39.347l-150.487-262.779zM438.5 500.972l113.695-113.695c7.998-7.998 20.965-7.998 28.963 0s7.998 20.965 0 28.963l-113.695 113.695c-7.998 7.998-20.965 7.998-28.963 0s-7.998-20.965 0-28.963z" />
<glyph unicode="&#xe951;" glyph-name="connection" d="M469.065 613.624l191.805 191.805c55.91 55.91 146.552 55.91 202.472-0.001 55.909-55.909 55.909-146.55-0.001-202.46l-199.946-199.946c-55.909-55.9-146.552-55.9-202.462 0.001-19.006 19.006-31.981 42.453-38.055 68.014-2.615 11.004-13.655 17.806-24.66 15.191s-17.806-13.655-15.191-24.66c7.815-32.89 24.532-63.099 48.943-87.51 71.907-71.895 188.48-71.895 260.386-0.001l199.947 199.947c71.906 71.906 71.906 188.481 0 260.387-71.917 71.906-188.492 71.906-260.397 0l-191.805-191.805c-7.998-7.998-7.998-20.965 0-28.963s20.965-7.998 28.963 0zM548.841 286.252l-191.805-191.805c-55.91-55.91-146.552-55.91-202.472 0.001-55.899 55.908-55.899 146.551 0.002 202.461l199.945 199.945c55.909 55.9 146.552 55.9 202.462-0.001 19.006-19.006 31.981-42.453 38.055-68.014 2.615-11.004 13.655-17.806 24.66-15.191s17.806 13.655 15.191 24.66c-7.815 32.89-24.532 63.099-48.943 87.51-71.907 71.895-188.48 71.895-260.386 0.001l-199.947-199.947c-71.895-71.907-71.895-188.48-0.001-260.386 71.918-71.907 188.493-71.907 260.398-0.001l191.805 191.805c7.998 7.998 7.998 20.965 0 28.963s-20.965 7.998-28.963 0z" />
<glyph unicode="&#xe952;" glyph-name="consumable_supplies_expenses" d="M482.133 949.758v-76.401c0-11.311 9.169-20.48 20.48-20.48s20.48 9.169 20.48 20.48v76.401c0 11.311-9.169 20.48-20.48 20.48s-20.48-9.169-20.48-20.48zM212.429 857.301l38.195-66.161c5.655-9.796 18.18-13.152 27.976-7.497s13.152 18.18 7.497 27.976l-38.195 66.161c-5.655 9.796-18.18 13.152-27.976 7.497s-13.152-18.18-7.497-27.976zM51.201 659.574l66.161-38.195c9.796-5.655 22.321-2.299 27.976 7.497s2.299 22.321-7.497 27.976l-66.161 38.195c-9.796 5.655-22.321 2.299-27.976-7.497s-2.299-22.321 7.497-27.976zM887.861 621.374l66.161 38.195c9.796 5.655 13.152 18.18 7.497 27.976s-18.18 13.152-27.976 7.497l-66.161-38.195c-9.796-5.655-13.152-18.18-7.497-27.976s18.18-13.152 27.976-7.497zM754.597 791.137l38.195 66.161c5.655 9.796 2.299 22.321-7.497 27.976s-22.321 2.299-27.976-7.497l-38.195-66.161c-5.655-9.796-2.299-22.321 7.497-27.976s22.321-2.299 27.976 7.497zM609.465 360.692c0 6.809 3.384 13.172 9.029 16.979 53.847 36.315 86.469 95.279 86.469 159.497 0 107.392-90.442 194.744-202.353 194.744s-202.353-87.353-202.353-194.744c0-64.218 32.623-123.181 86.469-159.497 5.645-3.807 9.029-10.171 9.029-16.979v-181.903c0-22.143 17.946-40.090 40.090-40.090h133.54c22.134 0 40.079 17.947 40.079 40.090v181.903zM650.425 178.788c0-44.763-36.283-81.050-81.039-81.050h-133.54c-44.765 0-81.050 36.285-81.050 81.050v171.312c-59.555 44.178-95.498 112.657-95.498 187.067 0 130.338 109.092 235.704 243.313 235.704s243.313-105.366 243.313-235.704c0-74.41-35.943-142.89-95.498-187.067v-171.312zM400.746 21.186h203.735c11.311 0 20.48 9.169 20.48 20.48s-9.169 20.48-20.48 20.48h-203.735c-11.311 0-20.48-9.169-20.48-20.48s9.169-20.48 20.48-20.48zM426.213-55.214h152.801c11.311 0 20.48 9.169 20.48 20.48s-9.169 20.48-20.48 20.48h-152.801c-11.311 0-20.48-9.169-20.48-20.48s9.169-20.48 20.48-20.48z" />
<glyph unicode="&#xe953;" glyph-name="convenience_store" d="M963.142 611.84c5.657 0 10.24 4.583 10.24 10.24v143.36c0 5.657-4.583 10.24-10.24 10.24h-922.184c-5.657 0-10.24-4.583-10.24-10.24v-143.36c0-5.657 4.583-10.24 10.24-10.24h922.184zM963.142 570.88h-922.184c-28.278 0-51.2 22.922-51.2 51.2v143.36c0 28.278 22.922 51.2 51.2 51.2h922.184c28.278 0 51.2-22.922 51.2-51.2v-143.36c0-28.278-22.922-51.2-51.2-51.2zM116.958 670.464h226.56c11.311 0 20.48 9.169 20.48 20.48s-9.169 20.48-20.48 20.48h-226.56c-11.311 0-20.48-9.169-20.48-20.48s9.169-20.48 20.48-20.48zM711.971 438.784c0 5.657-4.583 10.24-10.24 10.24h-399.36c-5.657 0-10.24-4.583-10.24-10.24v-317.44h419.84v317.44zM251.171 80.384v358.4c0 28.278 22.922 51.2 51.2 51.2h399.36c28.278 0 51.2-22.922 51.2-51.2v-358.4h-501.76zM481.571 469.333v-369.49h40.96v369.49zM901.411 591.36v-439.296c0-16.962-13.758-30.72-30.72-30.72h-737.28c-16.962 0-30.72 13.758-30.72 30.72v439.296h-40.96v-439.296c0-39.583 32.097-71.68 71.68-71.68h737.28c39.583 0 71.68 32.097 71.68 71.68v439.296h-40.96z" />
<glyph unicode="&#xe954;" glyph-name="cosmetics" d="M225.28 371.935v219.136c0 5.657 4.583 10.24 10.24 10.24h143.36c5.657 0 10.24-4.583 10.24-10.24v-219.136c0-11.311 9.169-20.48 20.48-20.48s20.48 9.169 20.48 20.48v219.136c0 28.278-22.922 51.2-51.2 51.2h-143.36c-28.278 0-51.2-22.922-51.2-51.2v-219.136c0-11.311 9.169-20.48 20.48-20.48s20.48 9.169 20.48 20.48zM671.908 474.715l-0.005 0.066c0.002-0.022 0.003-0.044 0.005-0.066zM815.463 648.9c-0.001-0.016-0.002-0.032-0.003-0.048l0.003 0.048zM804.014 488.668l10.244 143.36h-153.591l10.244-143.36h133.103zM843.875 471.838c-0.988-13.533-12.36-24.13-25.917-24.13h-160.993c-13.566 0-24.98 10.621-25.917 24.13l-12.439 174.080c-1.072 14.684 10.474 27.070 25.177 27.070h187.351c14.703 0 26.249-12.387 25.179-27.039l-12.442-174.111zM419.84-22.305c5.657 0 10.24 4.583 10.24 10.24v337.92c0 5.657-4.583 10.24-10.24 10.24h-215.040c-11.309 0-20.48-9.171-20.48-20.48v-327.68c0-5.657 4.583-10.24 10.24-10.24h225.28zM419.84-63.265h-225.28c-28.278 0-51.2 22.922-51.2 51.2v327.68c0 33.931 27.509 61.44 61.44 61.44h215.040c28.278 0 51.2-22.922 51.2-51.2v-337.92c0-28.278-22.922-51.2-51.2-51.2zM802.816 468.191v-470.016c0-11.309-9.171-20.48-20.48-20.48h-90.112c-11.309 0-20.48 9.171-20.48 20.48v480.256c0 11.311-9.169 20.48-20.48 20.48s-20.48-9.169-20.48-20.48v-480.256c0-33.931 27.509-61.44 61.44-61.44h90.112c33.931 0 61.44 27.509 61.44 61.44v470.016c0 11.311-9.169 20.48-20.48 20.48s-20.48-9.169-20.48-20.48zM337.92 621.791h40.96v299.008c0 32.811-29.218 49.355-57.35 32.483l-49.73-29.842c-20.647-12.383-36.279-39.992-36.279-64.081v-237.568h40.96v237.568c0 9.7 8.081 23.974 16.39 28.957l45.050 27.033v-293.558zM626.074 918.751h222.452l-33.273-274.011c-1.363-11.228 6.634-21.436 17.862-22.799s21.436 6.634 22.799 17.862l34.965 287.95v1.239c0 16.963-13.757 30.72-30.72 30.72h-245.76c-16.963 0-30.72-13.757-30.72-30.72v-1.271l35.997-289.005c1.398-11.224 11.63-19.19 22.854-17.792s19.19 11.63 17.792 22.854l-34.249 274.973z" />
</font>
</defs>
</svg>
